<svg width="185" height="54" viewBox="0 0 185 54" fill="none" xmlns="http://www.w3.org/2000/svg">
<g opacity="0.3">
<path d="M183.069 47.7424C183.069 50.587 180.725 52.8911 177.827 52.8911H6.27204C3.37472 52.8911 1.02295 50.587 1.02295 47.7424V6.68327C1.02295 3.84007 3.37472 1.52786 6.27204 1.52786H177.825C180.725 1.52786 183.067 3.84007 183.067 6.68327L183.069 47.7424Z" fill="black"/>
<path d="M177.273 1.58996C180.43 1.58996 182.999 4.10371 182.999 7.19293V47.226C182.999 50.3153 180.43 52.829 177.273 52.829H6.8182C3.66137 52.829 1.09262 50.3153 1.09262 47.226V7.19293C1.09262 4.10371 3.66137 1.58996 6.8182 1.58996H177.273ZM177.273 0.520749H6.8182C3.06989 0.520749 0 3.5249 0 7.19293V47.226C0 50.8941 3.06989 53.8982 6.8182 53.8982H177.273C181.021 53.8982 184.091 50.8941 184.091 47.226V7.19293C184.091 3.5249 181.021 0.520749 177.273 0.520749Z" fill="#A6A6A6"/>
<path d="M41.0835 26.9212C41.044 22.6203 44.6822 20.5279 44.8486 20.4305C42.7881 17.4908 39.5945 17.0891 38.4722 17.0571C35.7899 16.7808 33.1881 18.6277 31.8217 18.6277C30.4281 18.6277 28.324 17.0838 26.0562 17.1291C23.138 17.1732 20.408 18.8265 18.9108 21.394C15.8208 26.629 18.1253 34.322 21.0858 38.5535C22.5667 40.6259 24.2971 42.9398 26.5621 42.8584C28.7781 42.769 29.6058 41.4759 32.2799 41.4759C34.9294 41.4759 35.7067 42.8584 38.0167 42.8064C40.3949 42.769 41.8922 40.7246 43.3213 38.6336C45.0326 36.2583 45.7199 33.919 45.7472 33.7989C45.6913 33.7802 41.1285 32.0762 41.0835 26.9212Z" fill="white"/>
<path d="M36.7199 14.2734C37.9117 12.8149 38.7272 10.8306 38.5008 8.81693C36.7758 8.89165 34.6185 9.98456 33.3763 11.4111C32.2772 12.6681 31.2953 14.7285 31.549 16.6661C33.4867 16.8075 35.4763 15.7093 36.7199 14.2734Z" fill="white"/>
<path d="M73.1525 42.5608H70.0557L68.3593 37.3445H62.4629L60.847 42.5608H57.832L63.6739 24.8021H67.282L73.1525 42.5608ZM67.848 35.156L66.3139 30.5189C66.1516 30.0451 65.8475 28.9296 65.3989 27.1734H65.3443C65.1657 27.9287 64.878 29.0443 64.4825 30.5189L62.9757 35.156H67.848V35.156Z" fill="white"/>
<path d="M88.1756 36.0008C88.1756 38.1786 87.5742 39.9 86.3715 41.1637C85.2942 42.2886 83.9565 42.8504 82.3597 42.8504C80.636 42.8504 79.3979 42.2446 78.6438 41.0329H78.5892V47.7785H75.6819V33.9711C75.6819 32.602 75.6451 31.1968 75.5742 29.7556H78.131L78.2933 31.7853H78.3479C79.3174 30.256 80.7888 29.4927 82.7633 29.4927C84.307 29.4927 85.5956 30.0892 86.6265 31.2835C87.6602 32.4792 88.1756 34.0512 88.1756 36.0008ZM85.2138 36.1049C85.2138 34.8585 84.9274 33.831 84.352 33.0223C83.7233 32.1789 82.8792 31.7573 81.821 31.7573C81.1038 31.7573 80.452 31.9921 79.8697 32.4552C79.286 32.9222 78.9042 33.5321 78.7256 34.2874C78.6356 34.6396 78.5906 34.9279 78.5906 35.1547V37.2898C78.5906 38.2213 78.8824 39.0073 79.466 39.6491C80.0497 40.291 80.8079 40.6112 81.7406 40.6112C82.8356 40.6112 83.6879 40.1976 84.2974 39.3729C84.9083 38.5469 85.2138 37.458 85.2138 36.1049Z" fill="white"/>
<path d="M103.226 36.0008C103.226 38.1786 102.625 39.9 101.421 41.1637C100.345 42.2886 99.0069 42.8504 97.4101 42.8504C95.6864 42.8504 94.4483 42.2446 93.6955 41.0329H93.641V47.7785H90.7337V33.9711C90.7337 32.602 90.6969 31.1968 90.626 29.7556H93.1828L93.3451 31.7853H93.3996C94.3678 30.256 95.8392 29.4927 97.8151 29.4927C99.3574 29.4927 100.646 30.0892 101.68 31.2835C102.709 32.4792 103.226 34.0512 103.226 36.0008ZM100.264 36.1049C100.264 34.8585 99.9765 33.831 99.401 33.0223C98.7724 32.1789 97.931 31.7573 96.8715 31.7573C96.1528 31.7573 95.5024 31.9921 94.9187 32.4552C94.3351 32.9222 93.9546 33.5321 93.776 34.2874C93.6873 34.6396 93.641 34.9279 93.641 35.1547V37.2898C93.641 38.2213 93.9328 39.0073 94.5137 39.6491C95.0973 40.2897 95.8555 40.6112 96.791 40.6112C97.886 40.6112 98.7383 40.1976 99.3478 39.3729C99.9587 38.5469 100.264 37.458 100.264 36.1049Z" fill="white"/>
<path d="M120.054 37.5807C120.054 39.0913 119.518 40.3203 118.442 41.2691C117.26 42.306 115.614 42.8237 113.499 42.8237C111.546 42.8237 109.98 42.4554 108.795 41.7175L109.469 39.3462C110.745 40.1015 112.146 40.4805 113.672 40.4805C114.767 40.4805 115.619 40.2376 116.231 39.7545C116.841 39.2715 117.145 38.6229 117.145 37.8143C117.145 37.0937 116.894 36.4865 116.391 35.9941C115.89 35.5017 115.055 35.044 113.887 34.621C110.71 33.4613 109.123 31.7626 109.123 29.5287C109.123 28.0689 109.679 26.8719 110.793 25.9404C111.903 25.0077 113.384 24.5419 115.236 24.5419C116.887 24.5419 118.259 24.8235 119.354 25.3853L118.627 27.7046C117.605 27.1601 116.448 26.8879 115.154 26.8879C114.131 26.8879 113.332 27.1348 112.76 27.6258C112.275 28.0649 112.033 28.6 112.033 29.2338C112.033 29.9357 112.31 30.5162 112.866 30.9726C113.35 31.3943 114.23 31.8507 115.506 32.3431C117.067 32.9582 118.214 33.6775 118.952 34.5022C119.687 35.3242 120.054 36.353 120.054 37.5807Z" fill="white"/>
<path d="M129.666 31.8907H126.461V38.1078C126.461 39.6891 127.026 40.4791 128.158 40.4791C128.677 40.4791 129.108 40.4351 129.449 40.347L129.53 42.5074C128.957 42.717 128.203 42.8224 127.269 42.8224C126.12 42.8224 125.223 42.4794 124.575 41.7949C123.93 41.109 123.606 39.9587 123.606 38.3427V31.888H121.697V29.7529H123.606V27.4083L126.461 26.5649V29.7529H129.666V31.8907Z" fill="white"/>
<path d="M144.124 36.0528C144.124 38.0211 143.549 39.6371 142.401 40.9008C141.197 42.2019 139.599 42.8504 137.606 42.8504C135.686 42.8504 134.158 42.2272 133.018 40.9809C131.878 39.7345 131.308 38.1612 131.308 36.265C131.308 34.2807 131.894 32.6553 133.071 31.3916C134.245 30.1266 135.829 29.494 137.822 29.494C139.742 29.494 141.287 30.1172 142.453 31.3649C143.568 32.5752 144.124 34.1379 144.124 36.0528ZM141.108 36.1449C141.108 34.9639 140.85 33.9511 140.328 33.1064C139.719 32.0842 138.847 31.5744 137.718 31.5744C136.549 31.5744 135.662 32.0855 135.052 33.1064C134.53 33.9524 134.272 34.9812 134.272 36.1982C134.272 37.3792 134.53 38.3921 135.052 39.2354C135.681 40.2576 136.559 40.7674 137.692 40.7674C138.802 40.7674 139.674 40.2469 140.302 39.2087C140.838 38.348 141.108 37.3245 141.108 36.1449Z" fill="white"/>
<path d="M153.575 32.2577C153.287 32.2056 152.98 32.1789 152.658 32.1789C151.636 32.1789 150.845 32.5566 150.288 33.3132C149.804 33.9804 149.561 34.8238 149.561 35.842V42.5609H146.656L146.683 33.7883C146.683 32.3124 146.646 30.9686 146.574 29.7569H149.106L149.212 32.207H149.293C149.6 31.3649 150.084 30.687 150.746 30.1786C151.394 29.7209 152.094 29.4927 152.848 29.4927C153.116 29.4927 153.359 29.5114 153.575 29.5448V32.2577Z" fill="white"/>
<path d="M166.577 35.5524C166.577 36.0621 166.543 36.4918 166.47 36.8428H157.749C157.783 38.1078 158.204 39.0753 159.014 39.7425C159.749 40.339 160.7 40.6379 161.867 40.6379C163.158 40.6379 164.336 40.4364 165.396 40.0321L165.851 42.007C164.613 42.5355 163.151 42.7984 161.465 42.7984C159.435 42.7984 157.843 42.2139 156.684 41.0462C155.527 39.8786 154.948 38.3107 154.948 36.3437C154.948 34.4128 155.486 32.8048 156.565 31.5224C157.694 30.1532 159.22 29.4687 161.14 29.4687C163.026 29.4687 164.454 30.1532 165.423 31.5224C166.191 32.6099 166.577 33.9551 166.577 35.5524ZM163.805 34.8144C163.824 33.9711 163.634 33.2425 163.24 32.6273C162.737 31.836 161.964 31.441 160.923 31.441C159.973 31.441 159.2 31.8266 158.609 32.6006C158.125 33.2158 157.837 33.9537 157.749 34.8131H163.805V34.8144Z" fill="white"/>
<path d="M66.8868 13.8772C66.8868 15.4478 66.4054 16.6301 65.4441 17.4241C64.5536 18.1567 63.2882 18.5237 61.6491 18.5237C60.8363 18.5237 60.1409 18.489 59.5586 18.4196V9.83781C60.3181 9.71771 61.1363 9.65633 62.02 9.65633C63.5813 9.65633 64.7582 9.9886 65.5518 10.6532C66.4409 11.4044 66.8868 12.4787 66.8868 13.8772ZM65.38 13.9158C65.38 12.8977 65.1045 12.117 64.5536 11.5726C64.0027 11.0295 63.1982 10.7572 62.1386 10.7572C61.6886 10.7572 61.3054 10.7866 60.9877 10.848V17.372C61.1636 17.3987 61.4854 17.4107 61.9531 17.4107C63.0468 17.4107 63.8909 17.1132 64.4854 16.518C65.08 15.9228 65.38 15.0555 65.38 13.9158Z" fill="white"/>
<path d="M74.8765 15.2489C74.8765 16.2164 74.5942 17.0091 74.0297 17.6309C73.4379 18.2701 72.6538 18.589 71.6747 18.589C70.731 18.589 69.9797 18.2834 69.4192 17.6696C68.8601 17.0571 68.5806 16.2845 68.5806 15.353C68.5806 14.3789 68.8683 13.5796 69.4465 12.959C70.0247 12.3385 70.8019 12.0276 71.781 12.0276C72.7247 12.0276 73.4829 12.3332 74.0569 12.9457C74.6024 13.5409 74.8765 14.3095 74.8765 15.2489ZM73.3942 15.2943C73.3942 14.7138 73.266 14.2161 73.011 13.8011C72.711 13.2993 72.2842 13.0484 71.7292 13.0484C71.1551 13.0484 70.7188 13.2993 70.4188 13.8011C70.1624 14.2161 70.0356 14.7218 70.0356 15.3197C70.0356 15.9001 70.1638 16.3979 70.4188 16.8129C70.7283 17.3146 71.1592 17.5655 71.7156 17.5655C72.261 17.5655 72.6892 17.3106 72.9974 16.7995C73.2619 16.3765 73.3942 15.8748 73.3942 15.2943Z" fill="white"/>
<path d="M85.589 12.1557L83.5777 18.4463H82.2686L81.4354 15.7147C81.224 15.0328 81.0522 14.3549 80.9186 13.6823H80.8927C80.7686 14.3736 80.5968 15.0501 80.3759 15.7147L79.4908 18.4463H78.1668L76.2754 12.1557H77.744L78.4708 15.1462C78.6468 15.8534 78.7913 16.5273 78.9072 17.1652H78.9331C79.0395 16.6394 79.2154 15.9695 79.4636 15.1595L80.3759 12.1571H81.5404L82.4145 15.0955C82.6259 15.8121 82.7977 16.502 82.9299 17.1665H82.9695C83.0663 16.5193 83.2122 15.8294 83.4059 15.0955L84.1859 12.1571H85.589V12.1557Z" fill="white"/>
<path d="M92.9978 18.4463H91.5687V14.8433C91.5687 13.733 91.1378 13.1779 90.2733 13.1779C89.8492 13.1779 89.5069 13.33 89.241 13.6356C88.9778 13.9412 88.8442 14.3015 88.8442 14.7138V18.4449H87.4151V13.9532C87.4151 13.4008 87.3974 12.8016 87.3633 12.1531H88.6192L88.686 13.1365H88.7256C88.8919 12.831 89.1401 12.5787 89.466 12.3772C89.8533 12.1424 90.2869 12.0236 90.7615 12.0236C91.3615 12.0236 91.8606 12.2131 92.2574 12.5934C92.751 13.0591 92.9978 13.7544 92.9978 14.6778V18.4463V18.4463Z" fill="white"/>
<path d="M96.9385 18.4462H95.5107V9.26932H96.9385V18.4462Z" fill="white"/>
<path d="M105.352 15.2489C105.352 16.2164 105.07 17.0091 104.505 17.6309C103.913 18.2701 103.128 18.589 102.15 18.589C101.205 18.589 100.454 18.2834 99.8948 17.6696C99.3357 17.0571 99.0562 16.2845 99.0562 15.353C99.0562 14.3789 99.3439 13.5796 99.9221 12.959C100.5 12.3385 101.278 12.0276 102.255 12.0276C103.2 12.0276 103.957 12.3332 104.533 12.9457C105.078 13.5409 105.352 14.3095 105.352 15.2489ZM103.868 15.2943C103.868 14.7138 103.74 14.2161 103.485 13.8011C103.187 13.2993 102.758 13.0484 102.205 13.0484C101.629 13.0484 101.193 13.2993 100.894 13.8011C100.638 14.2161 100.511 14.7218 100.511 15.3197C100.511 15.9001 100.639 16.3979 100.894 16.8129C101.204 17.3146 101.635 17.5655 102.191 17.5655C102.737 17.5655 103.163 17.3106 103.472 16.7995C103.738 16.3765 103.868 15.8748 103.868 15.2943Z" fill="white"/>
<path d="M112.268 18.4462H110.985L110.879 17.7216H110.839C110.4 18.2995 109.774 18.589 108.962 18.589C108.355 18.589 107.864 18.3982 107.494 18.0192C107.159 17.6749 106.991 17.2466 106.991 16.7382C106.991 15.9695 107.318 15.3837 107.977 14.978C108.634 14.5724 109.559 14.3735 110.749 14.3829V14.2655C110.749 13.4368 110.305 13.0231 109.414 13.0231C108.78 13.0231 108.221 13.1792 107.738 13.4888L107.448 12.5707C108.045 12.2091 108.783 12.0276 109.653 12.0276C111.333 12.0276 112.176 12.895 112.176 14.6298V16.9463C112.176 17.5749 112.207 18.0753 112.268 18.4462ZM110.785 16.2845V15.3143C109.208 15.2876 108.42 15.7106 108.42 16.582C108.42 16.9103 108.51 17.1558 108.694 17.32C108.878 17.4841 109.113 17.5655 109.393 17.5655C109.706 17.5655 109.999 17.4681 110.267 17.2746C110.535 17.0798 110.7 16.8329 110.762 16.53C110.777 16.4619 110.785 16.3792 110.785 16.2845Z" fill="white"/>
<path d="M120.389 18.4462H119.121L119.054 17.4361H119.015C118.61 18.2047 117.92 18.589 116.95 18.589C116.176 18.589 115.531 18.2914 115.019 17.6963C114.508 17.1011 114.253 16.3285 114.253 15.3797C114.253 14.3615 114.53 13.5368 115.086 12.907C115.625 12.3198 116.285 12.0263 117.07 12.0263C117.933 12.0263 118.537 12.3105 118.881 12.8803H118.908V9.26932H120.339V16.7515C120.339 17.364 120.355 17.9285 120.389 18.4462ZM118.908 15.7934V14.7445C118.908 14.563 118.895 14.4162 118.869 14.3041C118.788 13.9679 118.615 13.685 118.352 13.4568C118.086 13.2286 117.766 13.1138 117.396 13.1138C116.863 13.1138 116.446 13.3207 116.139 13.7357C115.835 14.1507 115.681 14.6805 115.681 15.3277C115.681 15.9495 115.827 16.4539 116.12 16.8422C116.429 17.2559 116.847 17.4628 117.369 17.4628C117.838 17.4628 118.213 17.2906 118.498 16.945C118.773 16.6261 118.908 16.2418 118.908 15.7934Z" fill="white"/>
<path d="M132.611 15.2489C132.611 16.2164 132.329 17.0091 131.765 17.6309C131.173 18.2701 130.39 18.589 129.41 18.589C128.467 18.589 127.716 18.2834 127.154 17.6696C126.595 17.0571 126.315 16.2845 126.315 15.353C126.315 14.3789 126.603 13.5796 127.181 12.959C127.76 12.3385 128.537 12.0276 129.517 12.0276C130.46 12.0276 131.219 12.3332 131.792 12.9457C132.337 13.5409 132.611 14.3095 132.611 15.2489ZM131.13 15.2943C131.13 14.7138 131.002 14.2161 130.747 13.8011C130.446 13.2993 130.02 13.0484 129.464 13.0484C128.891 13.0484 128.455 13.2993 128.154 13.8011C127.897 14.2161 127.77 14.7218 127.77 15.3197C127.77 15.9001 127.899 16.3979 128.154 16.8129C128.463 17.3146 128.894 17.5655 129.45 17.5655C129.996 17.5655 130.425 17.3106 130.734 16.7995C130.997 16.3765 131.13 15.8748 131.13 15.2943Z" fill="white"/>
<path d="M140.296 18.4463H138.868V14.8433C138.868 13.733 138.437 13.1779 137.571 13.1779C137.147 13.1779 136.805 13.33 136.54 13.6356C136.276 13.9412 136.144 14.3015 136.144 14.7138V18.4449H134.713V13.9532C134.713 13.4008 134.697 12.8016 134.663 12.1531H135.917L135.984 13.1365H136.024C136.191 12.831 136.439 12.5787 136.764 12.3772C137.153 12.1424 137.585 12.0236 138.061 12.0236C138.659 12.0236 139.159 12.2131 139.555 12.5934C140.05 13.0591 140.296 13.7544 140.296 14.6778V18.4463V18.4463Z" fill="white"/>
<path d="M149.914 13.2032H148.34V16.2591C148.34 17.0357 148.619 17.4241 149.173 17.4241C149.429 17.4241 149.642 17.4027 149.81 17.3587L149.847 18.4196C149.564 18.5236 149.194 18.5757 148.737 18.5757C148.172 18.5757 147.733 18.4075 147.415 18.0713C147.096 17.735 146.938 17.1692 146.938 16.3752V13.2032H145.999V12.1557H146.938V11.0028L148.339 10.5891V12.1544H149.912V13.2032H149.914Z" fill="white"/>
<path d="M157.479 18.4462H156.048V14.8699C156.048 13.7424 155.617 13.1779 154.754 13.1779C154.091 13.1779 153.639 13.5048 153.391 14.1587C153.348 14.2961 153.324 14.4643 153.324 14.6618V18.4449H151.896V9.26932H153.324V13.0605H153.351C153.801 12.3705 154.446 12.0263 155.282 12.0263C155.874 12.0263 156.363 12.2158 156.752 12.5961C157.236 13.0698 157.479 13.7744 157.479 14.7058V18.4462V18.4462Z" fill="white"/>
<path d="M165.283 15.0034C165.283 15.2543 165.264 15.4651 165.23 15.6373H160.944C160.963 16.2591 161.167 16.7328 161.564 17.0611C161.927 17.3547 162.395 17.5015 162.967 17.5015C163.602 17.5015 164.18 17.4027 164.701 17.2039L164.924 18.1754C164.315 18.4342 163.597 18.5637 162.767 18.5637C161.772 18.5637 160.987 18.2768 160.42 17.703C159.85 17.1292 159.568 16.3592 159.568 15.3931C159.568 14.4443 159.831 13.6543 160.362 13.0244C160.915 12.3519 161.664 12.0156 162.609 12.0156C163.533 12.0156 164.236 12.3519 164.71 13.0244C165.093 13.5582 165.283 14.2188 165.283 15.0034ZM163.919 14.6418C163.93 14.2268 163.836 13.8691 163.642 13.5676C163.394 13.1792 163.017 12.9844 162.505 12.9844C162.039 12.9844 161.658 13.1739 161.368 13.5542C161.131 13.8571 160.99 14.2188 160.944 14.6418H163.919Z" fill="white"/>
</g>
</svg>
