<svg width="184" height="54" viewBox="0 0 184 54" fill="none" xmlns="http://www.w3.org/2000/svg">
<path d="M177.029 53.8984H6.80883C3.06567 53.8984 0 50.8943 0 47.2263V7.19315C0 3.52511 3.06567 0.520958 6.80883 0.520958H177.029C180.773 0.520958 183.838 3.52511 183.838 7.19315V47.2263C183.838 50.8943 180.773 53.8984 177.029 53.8984Z" fill="black"/>
<path d="M177.029 1.59017C180.182 1.59017 182.747 4.10392 182.747 7.19315V47.2263C182.747 50.3155 180.182 52.8292 177.029 52.8292H6.80883C3.65634 52.8292 1.09111 50.3155 1.09111 47.2263V7.19315C1.09111 4.10392 3.65634 1.59017 6.80883 1.59017H177.029ZM177.029 0.520958H6.80883C3.06567 0.520958 0 3.52511 0 7.19315V47.2263C0 50.8943 3.06567 53.8984 6.80883 53.8984H177.029C180.773 53.8984 183.838 50.8943 183.838 47.2263V7.19315C183.838 3.52511 180.773 0.520958 177.029 0.520958Z" fill="#A6A6A6"/>
<path d="M64.5716 14.1906C64.5716 15.3048 64.2312 16.1972 63.5605 16.8628C62.7894 17.6517 61.7851 18.0487 60.5544 18.0487C59.3782 18.0487 58.3739 17.6451 57.55 16.8494C56.7244 16.0421 56.3125 15.0513 56.3125 13.8653C56.3125 12.6793 56.7244 11.6885 57.55 10.8878C58.3739 10.0855 59.3782 9.68182 60.5544 9.68182C61.14 9.68182 61.6983 9.80026 62.2311 10.0204C62.7622 10.2423 63.1945 10.5425 63.5077 10.9128L62.7962 11.6168C62.2498 10.9846 61.5059 10.6726 60.5544 10.6726C59.6965 10.6726 58.9526 10.9662 58.3211 11.5584C57.6964 12.1522 57.3832 12.9212 57.3832 13.8653C57.3832 14.8094 57.6964 15.585 58.3211 16.1789C58.9526 16.7643 59.6965 17.0646 60.5544 17.0646C61.4651 17.0646 62.2311 16.7643 62.8354 16.1722C63.2337 15.7802 63.4601 15.2398 63.5196 14.5492H60.5544V13.5851H64.5103C64.558 13.7936 64.5716 13.9954 64.5716 14.1906Z" fill="white" stroke="white" stroke-width="0.16" stroke-miterlimit="10"/>
<path d="M70.8475 10.8478H67.1316V13.3832H70.4815V14.3473H67.1316V16.8828H70.8475V17.8653H66.0796V9.86531H70.8475V10.8478Z" fill="white" stroke="white" stroke-width="0.16" stroke-miterlimit="10"/>
<path d="M75.2765 17.8653H74.2246V10.8478H71.9453V9.86531H77.5575V10.8478H75.2765V17.8653Z" fill="white" stroke="white" stroke-width="0.16" stroke-miterlimit="10"/>
<path d="M81.6191 17.8653V9.86531H82.6694V17.8653H81.6191Z" fill="white" stroke="white" stroke-width="0.16" stroke-miterlimit="10"/>
<path d="M87.3249 17.8653H86.2814V10.8478H83.9937V9.86531H89.6126V10.8478H87.3249V17.8653Z" fill="white" stroke="white" stroke-width="0.16" stroke-miterlimit="10"/>
<path d="M100.238 16.8361C99.4326 17.6451 98.4351 18.0487 97.2452 18.0487C96.0486 18.0487 95.0511 17.6451 94.2459 16.8361C93.4425 16.0287 93.0425 15.0379 93.0425 13.8653C93.0425 12.6926 93.4425 11.7018 94.2459 10.8945C95.0511 10.0855 96.0486 9.68182 97.2452 9.68182C98.4283 9.68182 99.4258 10.0855 100.231 10.9012C101.041 11.7152 101.441 12.6993 101.441 13.8653C101.441 15.0379 101.041 16.0287 100.238 16.8361ZM95.0239 16.1655C95.6298 16.7643 96.3669 17.0646 97.2452 17.0646C98.1168 17.0646 98.8606 16.7643 99.4598 16.1655C100.064 15.5667 100.37 14.7977 100.37 13.8653C100.37 12.9328 100.064 12.1639 99.4598 11.565C98.8606 10.9662 98.1168 10.666 97.2452 10.666C96.3669 10.666 95.6298 10.9662 95.0239 11.565C94.4196 12.1639 94.1132 12.9328 94.1132 13.8653C94.1132 14.7977 94.4196 15.5667 95.0239 16.1655Z" fill="white" stroke="white" stroke-width="0.16" stroke-miterlimit="10"/>
<path d="M102.917 17.8653V9.86531H104.194L108.163 16.0871H108.209L108.163 14.5492V9.86531H109.213V17.8653H108.117L103.96 11.3365H103.914L103.96 12.8811V17.8653H102.917Z" fill="white" stroke="white" stroke-width="0.16" stroke-miterlimit="10"/>
<path d="M92.7837 29.5483C89.5853 29.5483 86.9724 31.9336 86.9724 35.2247C86.9724 38.489 89.5853 40.8993 92.7837 40.8993C95.989 40.8993 98.6019 38.489 98.6019 35.2247C98.6019 31.9336 95.989 29.5483 92.7837 29.5483ZM92.7837 38.6642C91.0288 38.6642 89.5189 37.2447 89.5189 35.2247C89.5189 33.178 91.0288 31.7835 92.7837 31.7835C94.5387 31.7835 96.0554 33.178 96.0554 35.2247C96.0554 37.2447 94.5387 38.6642 92.7837 38.6642ZM80.104 29.5483C76.8987 29.5483 74.2927 31.9336 74.2927 35.2247C74.2927 38.489 76.8987 40.8993 80.104 40.8993C83.3076 40.8993 85.9153 38.489 85.9153 35.2247C85.9153 31.9336 83.3076 29.5483 80.104 29.5483ZM80.104 38.6642C78.3473 38.6642 76.8324 37.2447 76.8324 35.2247C76.8324 33.178 78.3473 31.7835 80.104 31.7835C81.859 31.7835 83.3688 33.178 83.3688 35.2247C83.3688 37.2447 81.859 38.6642 80.104 38.6642ZM65.0156 31.2881V33.7001H70.8934C70.7214 35.0478 70.2618 36.0387 69.5571 36.7292C68.6992 37.5633 67.363 38.489 65.0156 38.489C61.3985 38.489 58.566 35.6283 58.566 32.0837C58.566 28.5391 61.3985 25.6784 65.0156 25.6784C66.9715 25.6784 68.3945 26.4274 69.4448 27.3982L71.1793 25.6984C69.7103 24.324 67.7562 23.2681 65.0156 23.2681C60.0554 23.2681 55.8867 27.223 55.8867 32.0837C55.8867 36.9444 60.0554 40.8993 65.0156 40.8993C67.6966 40.8993 69.7103 40.0386 71.2934 38.424C72.9156 36.8343 73.4211 34.5991 73.4211 32.7943C73.4211 32.2338 73.3735 31.7184 73.2884 31.2881H65.0156ZM126.714 33.1579C126.235 31.8886 124.76 29.5483 121.754 29.5483C118.775 29.5483 116.295 31.8485 116.295 35.2247C116.295 38.4039 118.749 40.8993 122.04 40.8993C124.7 40.8993 126.235 39.3097 126.867 38.3839L124.892 37.0945C124.234 38.0386 123.337 38.6642 122.04 38.6642C120.751 38.6642 119.827 38.0854 119.234 36.9444L126.981 33.8035L126.714 33.1579ZM118.816 35.0478C118.749 32.8594 120.55 31.7384 121.84 31.7384C122.852 31.7384 123.709 32.2338 123.995 32.9428L118.816 35.0478ZM112.519 40.5541H115.066V23.8736H112.519V40.5541ZM108.349 30.8127H108.264C107.692 30.1488 106.601 29.5483 105.218 29.5483C102.318 29.5483 99.6658 32.0437 99.6658 35.243C99.6658 38.424 102.318 40.8993 105.218 40.8993C106.601 40.8993 107.692 40.2938 108.264 39.6099H108.349V40.424C108.349 42.5941 107.166 43.76 105.257 43.76C103.702 43.76 102.737 42.6591 102.338 41.7334L100.124 42.6391C100.762 44.1437 102.452 45.9952 105.257 45.9952C108.243 45.9952 110.762 44.2738 110.762 40.0853V29.8936H108.349V30.8127ZM105.436 38.6642C103.681 38.6642 102.212 37.2246 102.212 35.243C102.212 33.243 103.681 31.7835 105.436 31.7835C107.166 31.7835 108.529 33.243 108.529 35.243C108.529 37.2246 107.166 38.6642 105.436 38.6642ZM138.636 23.8736H132.546V40.5541H135.085V34.2338H138.636C141.457 34.2338 144.223 32.2338 144.223 29.0529C144.223 25.8736 141.45 23.8736 138.636 23.8736ZM138.702 31.9136H135.085V26.1939H138.702C140.599 26.1939 141.681 27.7368 141.681 29.0529C141.681 30.3439 140.599 31.9136 138.702 31.9136ZM154.402 29.5166C152.567 29.5166 150.659 30.3106 149.874 32.0704L152.128 32.9961C152.613 32.0704 153.505 31.7701 154.448 31.7701C155.765 31.7701 157.102 32.5458 157.122 33.9152V34.0904C156.662 33.8302 155.679 33.4448 154.468 33.4448C152.041 33.4448 149.568 34.7543 149.568 37.198C149.568 39.4331 151.556 40.8727 153.791 40.8727C155.5 40.8727 156.443 40.117 157.035 39.238H157.122V40.5274H159.575V34.1287C159.575 31.1713 157.321 29.5166 154.402 29.5166ZM154.095 38.6575C153.265 38.6575 152.107 38.2538 152.107 37.2447C152.107 35.9536 153.551 35.4582 154.8 35.4582C155.919 35.4582 156.443 35.7 157.122 36.0186C156.923 37.5633 155.566 38.6575 154.095 38.6575ZM168.511 29.8819L165.592 37.1129H165.505L162.487 29.8819H159.749L164.283 39.9869L161.696 45.6099H164.35L171.337 29.8819H168.511ZM145.619 40.5541H148.165V23.8736H145.619V40.5541Z" fill="white"/>
<path d="M14.2101 10.5809C13.8101 10.9912 13.5786 11.6301 13.5786 12.4574V41.9685C13.5786 42.7959 13.8101 43.4347 14.2101 43.8451L14.3089 43.9352L31.1845 27.4048V27.0145L14.3089 10.4841L14.2101 10.5809Z" fill="url(#paint0_linear_105_214)"/>
<path d="M36.8036 32.9177L31.1846 27.4048V27.0145L36.8104 21.5016L36.9363 21.5733L43.5988 25.288C45.5001 26.3422 45.5001 28.077 43.5988 29.1379L36.9363 32.846L36.8036 32.9177Z" fill="url(#paint1_linear_105_214)"/>
<path d="M36.9361 32.846L31.1844 27.2097L14.21 43.8451C14.8415 44.4956 15.8713 44.574 17.0424 43.9235L36.9361 32.846Z" fill="url(#paint2_linear_105_214)"/>
<path d="M36.9361 21.5733L17.0424 10.4958C15.8713 9.85197 14.8415 9.93037 14.21 10.5809L31.1844 27.2097L36.9361 21.5733Z" fill="url(#paint3_linear_105_214)"/>
<defs>
<linearGradient id="paint0_linear_105_214" x1="29.6862" y1="42.2758" x2="7.29572" y2="19.4269" gradientUnits="userSpaceOnUse">
<stop stop-color="#00A0FF"/>
<stop offset="0.0066" stop-color="#00A1FF"/>
<stop offset="0.2601" stop-color="#00BEFF"/>
<stop offset="0.5122" stop-color="#00D2FF"/>
<stop offset="0.7604" stop-color="#00DFFF"/>
<stop offset="1" stop-color="#00E3FF"/>
</linearGradient>
<linearGradient id="paint1_linear_105_214" x1="46.0747" y1="27.2078" x2="13.1242" y2="27.2078" gradientUnits="userSpaceOnUse">
<stop stop-color="#FFE000"/>
<stop offset="0.4087" stop-color="#FFBD00"/>
<stop offset="0.7754" stop-color="#FFA500"/>
<stop offset="1" stop-color="#FF9C00"/>
</linearGradient>
<linearGradient id="paint2_linear_105_214" x1="33.8085" y1="24.1457" x2="3.44521" y2="-6.83944" gradientUnits="userSpaceOnUse">
<stop stop-color="#FF3A44"/>
<stop offset="1" stop-color="#C31162"/>
</linearGradient>
<linearGradient id="paint3_linear_105_214" x1="9.93715" y1="53.6633" x2="23.4957" y2="39.8272" gradientUnits="userSpaceOnUse">
<stop stop-color="#32A071"/>
<stop offset="0.0685" stop-color="#2DA771"/>
<stop offset="0.4762" stop-color="#15CF74"/>
<stop offset="0.8009" stop-color="#06E775"/>
<stop offset="1" stop-color="#00F076"/>
</linearGradient>
</defs>
</svg>
