<svg width="120" height="28" viewBox="0 0 120 28" fill="none" xmlns="http://www.w3.org/2000/svg">
<path d="M7 24.7107L7.46227 2.10092C7.46227 2.07822 7.49869 2.07065 7.5071 2.09335L18.1086 24.6653C18.117 24.6829 18.145 24.6829 18.1534 24.6653L29.2171 2.09335C29.2283 2.07065 29.2619 2.07822 29.2619 2.10345V25.1194C29.2619 25.132 29.2732 25.1421 29.2872 25.1421H34.812C34.8232 25.1421 34.8316 25.1371 34.8344 25.127L44.0855 2.47435C44.0939 2.45669 44.1191 2.45416 44.1303 2.47182C48.7559 10.0311 52.4624 18.4432 57.0908 26C55.732 23.492 51.7256 18.1253 51.5323 17.8679C51.5267 17.8629 51.5211 17.8579 51.5127 17.8579L38.5887 18.2843C38.5718 18.2843 38.5578 18.2691 38.5634 18.254C40.2893 13.0488 41.7909 7.68713 44.1303 2.59798C44.1443 2.5677 44.1892 2.56518 44.206 2.59294C48.7839 10.0992 52.4652 18.4331 57.0516 25.9319C57.0628 25.9521 57.0936 25.9445 57.0964 25.9218L58.9399 2.48949C58.9427 2.4693 58.9707 2.46173 58.9847 2.47939L76.0636 25.9369C76.0776 25.9546 76.1084 25.947 76.1084 25.9268C76.2457 18.6224 74.335 2.68124 74.2537 2.02018C74.2509 2.00757 74.2621 2 74.2733 2C74.9037 2.02019 88.1779 2.42893 95.1204 2.42893H82.6223C82.6083 2.42893 82.5971 2.43903 82.5971 2.45164V13.5484C82.5971 13.561 82.6083 13.5711 82.6195 13.5711C86.3232 13.7124 90.0242 13.4272 93.728 13.5711C90.027 13.4298 86.3232 13.286 82.6223 13.1447C82.6083 13.1447 82.5971 13.1522 82.5971 13.1648C82.443 16.8688 82.2889 21.8469 82.1348 25.5509C82.1348 25.561 82.1432 25.5711 82.1544 25.5711C87.556 25.7149 93.2629 26.4264 98.8186 25.5711C98.827 25.5711 98.8326 25.566 98.8354 25.561C99.7516 23.7191 100.217 21.042 101.127 19.1901C101.136 19.1724 101.164 19.1749 101.169 19.1926C102.539 22.4676 105.554 24.7914 109.033 25.1421C112.547 25.4979 116.976 23.8831 117.845 20.8579C118.511 18.5366 116.929 15.9226 115.063 14.4289C110.633 10.889 104.696 13.7149 102.542 10.5711C101.206 8.62321 102.455 6.02944 102.542 5.85787C103.85 3.24138 107.081 2.62574 108.106 2.42893C109.011 2.25736 112.426 1.60387 115.063 3.71572C116.772 5.08326 117.242 6.88225 117.382 7.57359" stroke="#FA512F" stroke-width="3" stroke-miterlimit="10" stroke-linecap="round" stroke-linejoin="round"/>
<path d="M3 3C2.80357 9.72174 2.19643 18.2783 2 25" stroke="#FA512F" stroke-opacity="0.8" stroke-width="3" stroke-miterlimit="10" stroke-linecap="round" stroke-linejoin="round"/>
</svg>
