<svg width="1298" height="826" viewBox="0 0 1298 826" fill="none" xmlns="http://www.w3.org/2000/svg">
<path d="M25.4352 260.31L25.1737 266.304L25.3996 266.314L25.6256 266.307L25.4352 260.31ZM158.671 571.484L152.685 571.906L164.66 571.121L158.671 571.484ZM375.17 274.87L375.555 280.857L383.807 280.327L380.743 272.646L375.17 274.87ZM355.935 114.81L357.696 120.546L358.624 120.261L359.415 119.698L355.935 114.81ZM878.09 133.428L883.216 130.309L882.541 129.199L881.466 128.467L878.09 133.428ZM1138.41 816.31L1137.12 822.17L1137.3 822.208L1137.48 822.236L1138.41 816.31ZM1214.94 407.31L1214.65 401.317L1214.94 407.31ZM1009.94 274.869L1015.82 273.72L1015.74 273.279L1015.59 272.857L1009.94 274.869ZM1254.94 32.8107C1254.94 50.4838 1269.26 64.8107 1286.94 64.8107C1304.61 64.8107 1318.94 50.4838 1318.94 32.8107C1318.94 15.1376 1304.61 0.810663 1286.94 0.810663C1269.26 0.810663 1254.94 15.1376 1254.94 32.8107ZM-21.6957 503.056C-17.6462 483.983 -18.7847 458.723 -20.9212 432.444C-23.089 405.779 -26.3076 377.851 -26.9041 352.143C-27.5033 326.322 -25.3794 304.087 -17.6281 288.726C-13.8297 281.199 -8.7517 275.472 -2.04947 271.688C4.67647 267.891 13.4938 265.795 25.1737 266.304L25.6966 254.316C12.3102 253.732 1.15176 256.101 -7.94862 261.238C-17.0727 266.389 -23.6715 274.066 -28.3414 283.32C-37.5267 301.523 -39.5055 326.367 -38.9009 352.421C-38.2937 378.589 -35.0023 407.332 -32.8817 433.417C-30.7297 459.886 -29.8012 483.453 -33.4341 500.564L-21.6957 503.056ZM25.6256 266.307C69.2541 264.922 97.7067 275.503 116.48 293.12C135.372 310.849 145.38 336.551 150.282 367.269C155.185 397.987 154.87 432.943 153.755 468.502C152.647 503.831 150.741 539.859 152.682 571.848L164.66 571.121C162.763 539.85 164.628 504.642 165.749 468.878C166.863 433.343 167.235 397.349 162.132 365.378C157.03 333.408 146.339 304.684 124.691 284.369C102.924 263.942 70.993 252.86 25.2447 254.313L25.6256 266.307ZM164.656 571.063C161.37 524.419 159.249 483.826 161.352 448.841C163.454 413.864 169.758 384.996 182.969 361.598C209.084 315.343 263.714 288.048 375.555 280.857L374.785 268.882C261.959 276.136 201.771 303.888 172.519 355.698C158.046 381.333 151.529 412.252 149.373 448.121C147.218 483.98 149.402 525.289 152.685 571.906L164.656 571.063ZM380.743 272.646C372.849 252.857 360.823 234.865 349.228 218.769C337.433 202.394 326.415 188.382 319.503 175.632C312.581 162.863 310.972 153.465 315.07 145.674C319.431 137.381 331.305 128.65 357.696 120.546L354.174 109.074C327.348 117.312 311.214 127.224 304.449 140.088C297.42 153.454 301.567 167.726 308.954 181.351C316.351 194.995 328.197 210.103 339.491 225.783C350.987 241.742 362.277 258.743 369.597 277.093L380.743 272.646ZM359.415 119.698C455.658 51.1889 536.089 23.4188 616.168 28.6096C696.468 33.8147 777.459 72.2106 874.715 138.388L881.466 128.467C783.701 61.9429 700.516 22.052 616.944 16.6347C533.152 11.2032 450.016 40.4752 352.456 109.922L359.415 119.698ZM878.09 133.428C872.964 136.546 872.964 136.545 872.964 136.546C872.965 136.547 872.966 136.549 872.967 136.551C872.971 136.557 872.976 136.566 872.984 136.579C872.999 136.604 873.024 136.644 873.056 136.698C873.122 136.807 873.221 136.972 873.353 137.194C873.617 137.636 874.012 138.303 874.526 139.182C875.553 140.941 877.057 143.552 878.944 146.934C882.718 153.698 888.023 163.54 894.12 175.808C906.32 200.357 921.656 234.549 934.238 273.17C959.552 350.867 973.076 444.516 930.322 514.171L940.549 520.449C986.275 445.952 971.127 347.659 945.648 269.453C932.834 230.122 917.243 195.373 904.866 170.468C898.674 158.008 893.278 147.996 889.423 141.087C887.495 137.632 885.952 134.952 884.887 133.128C884.354 132.217 883.941 131.519 883.659 131.046C883.517 130.809 883.409 130.629 883.335 130.506C883.298 130.444 883.269 130.397 883.249 130.364C883.24 130.348 883.232 130.335 883.226 130.326C883.224 130.321 883.221 130.317 883.22 130.315C883.218 130.312 883.216 130.309 878.09 133.428ZM930.322 514.171C885.441 587.29 878.527 652.273 913.839 705.505C948.686 758.036 1023.55 797.184 1137.12 822.17L1139.7 810.45C1026.86 785.626 955.998 747.35 923.839 698.872C892.146 651.095 896.949 591.482 940.549 520.449L930.322 514.171ZM1137.48 822.236C1176.45 828.394 1206.54 825.872 1229.87 817.75C1253.27 809.603 1269.51 795.942 1280.89 780.469C1303.27 750.032 1306.87 712.009 1310.33 697.933L1298.67 695.067C1294.63 711.491 1291.73 745.468 1271.22 773.359C1261.15 787.049 1246.84 799.134 1225.92 806.417C1204.93 813.727 1176.92 816.321 1139.35 810.384L1137.48 822.236ZM1310.33 697.933C1314.17 682.31 1328.03 607.62 1322.7 537.432C1320.04 502.39 1312.55 467.7 1295.99 442.049C1279.14 415.956 1253.04 399.488 1214.65 401.317L1215.22 413.303C1249.08 411.69 1271.24 425.837 1285.9 448.557C1300.86 471.718 1308.13 504.037 1310.73 538.34C1315.94 606.843 1302.33 680.19 1298.67 695.067L1310.33 697.933ZM1214.65 401.317C1171.5 403.372 1126.72 397.351 1090.34 377.926C1054.21 358.636 1026.03 325.973 1015.82 273.72L1004.05 276.019C1014.97 331.939 1045.49 367.582 1084.69 388.512C1123.63 409.307 1170.79 415.42 1215.22 413.303L1214.65 401.317ZM1015.59 272.857C1001.54 233.406 999.344 204.546 1006.11 182.152C1012.83 159.926 1028.72 142.964 1053.37 127.997C1078.14 112.958 1111.14 100.306 1151.19 86.4769C1191.04 72.7167 1237.75 57.8292 1289.06 38.4226L1284.81 27.1987C1233.71 46.5257 1187.47 61.2549 1147.27 75.134C1107.28 88.9447 1073.14 101.954 1047.14 117.739C1021.02 133.596 1002.5 152.62 994.624 178.681C986.8 204.574 989.832 236.303 1004.28 276.882L1015.59 272.857Z" fill="#FA512F"/>
</svg>
