<svg width="295" height="304" viewBox="0 0 295 304" fill="none" xmlns="http://www.w3.org/2000/svg">
<path d="M145 7.67773C154.507 7.67773 165.537 18.6898 173.784 36.4144C183.534 57.3636 188.9 85.3819 188.9 115.298C188.9 145.213 183.534 173.232 173.784 194.181C165.537 211.905 154.507 222.917 145 222.917C135.494 222.917 124.463 211.905 116.216 194.181C106.466 173.232 101.1 145.213 101.1 115.298C101.1 85.3819 106.466 57.3636 116.216 36.4144C124.463 18.6843 135.494 7.67773 145 7.67773ZM145 0C115.374 0 91.3569 51.6218 91.3569 115.298C91.3569 178.973 115.374 230.595 145 230.595C174.626 230.595 198.643 178.973 198.643 115.298C198.643 51.6218 174.619 0 145 0Z" fill="#FA512F"/>
<path d="M29.0427 18.75V26.4277C34.0257 26.4277 40.4075 28.243 47.4991 31.676C55.3494 35.4765 63.7772 41.0757 72.5461 48.3147C91.079 63.6099 109.661 85.1678 124.853 109.007C142.071 136.022 153.394 163.217 156.741 185.587C159.574 204.518 156.059 218.36 147.576 221.716C146.017 222.336 144.263 222.632 142.217 222.632C137.234 222.632 130.845 220.817 123.76 217.384C115.91 213.583 107.482 207.984 98.7135 200.745C80.1736 185.45 61.5989 163.892 46.3995 140.053C29.1819 113.038 17.859 85.8424 14.5115 63.4728C11.679 44.5417 15.1935 30.6998 23.677 27.3436C25.236 26.7293 26.9897 26.4277 29.0358 26.4277L29.0427 18.75ZM29.0358 18.75C25.5213 18.75 22.2573 19.3149 19.3065 20.483C-7.16713 30.9631 1.06589 86.0398 37.6933 143.502C70.2356 194.554 114.24 230.31 142.217 230.31C145.731 230.31 148.995 229.745 151.946 228.577C178.42 218.097 170.187 163.02 133.559 105.558C101.017 54.5063 57.0196 18.75 29.0358 18.75Z" fill="#0C3EF5"/>
<path d="M260.047 26.5427C262.093 26.5427 263.846 26.8443 265.405 27.4586C273.889 30.8148 277.403 44.6622 274.571 63.5878C271.23 85.9574 259.907 113.159 242.69 140.173C227.497 164.013 208.916 185.57 190.383 200.871C181.614 208.11 173.186 213.709 165.336 217.51C158.244 220.943 151.862 222.758 146.879 222.758C144.833 222.758 143.08 222.456 141.521 221.842C133.037 218.486 129.523 204.639 132.355 185.713C135.696 163.343 147.019 136.142 164.236 109.128C179.429 85.2883 198.01 63.7304 216.543 48.4297C225.312 41.1907 233.74 35.5915 241.59 31.791C248.682 28.358 255.064 26.5427 260.047 26.5427ZM260.047 18.865C232.07 18.865 188.065 54.6268 155.53 105.678C118.903 163.146 110.677 218.223 137.15 228.697C140.101 229.866 143.365 230.43 146.879 230.43C174.856 230.43 218.861 194.669 251.396 143.617C288.023 86.1493 296.25 31.0726 269.776 20.598C266.825 19.4299 263.561 18.865 260.047 18.865Z" fill="#0C3EF5"/>
<path d="M16.2715 298.198L17.4198 249.055C17.4198 249.005 17.5103 248.989 17.5311 249.038L43.8656 298.099C43.8865 298.137 43.9561 298.137 43.9769 298.099L71.4597 249.038C71.4875 248.989 71.571 249.005 71.571 249.06V299.086C71.571 299.114 71.5989 299.136 71.6337 299.136H85.3577C85.3855 299.136 85.4063 299.125 85.4133 299.103L108.393 249.866C108.414 249.828 108.477 249.823 108.505 249.861C119.995 266.291 129.202 284.575 140.699 301C137.324 295.549 127.372 283.884 126.891 283.325C126.878 283.314 126.864 283.303 126.843 283.303L94.7389 284.23C94.6972 284.23 94.6624 284.197 94.6763 284.164C98.9633 272.85 102.694 261.197 108.505 250.135C108.539 250.069 108.651 250.064 108.693 250.124C120.064 266.439 129.209 284.553 140.602 300.852C140.629 300.896 140.706 300.879 140.713 300.83L145.292 249.899C145.299 249.855 145.369 249.839 145.404 249.877L187.828 300.863C187.863 300.901 187.939 300.885 187.939 300.841C188.28 284.965 183.534 250.316 183.332 248.879C183.325 248.852 183.353 248.835 183.381 248.835C184.947 248.879 217.921 249.768 235.166 249.768H204.12C204.085 249.768 204.057 249.79 204.057 249.817V273.936C204.057 273.964 204.085 273.985 204.113 273.985C213.314 274.293 222.507 273.673 231.707 273.985C222.514 273.678 213.314 273.366 204.12 273.059C204.085 273.059 204.057 273.075 204.057 273.103C203.675 281.153 203.292 291.973 202.909 300.024C202.909 300.046 202.93 300.068 202.958 300.068C216.376 300.38 230.552 301.927 244.353 300.068C244.373 300.068 244.387 300.057 244.394 300.046C246.67 296.042 247.825 290.224 250.087 286.199C250.108 286.16 250.178 286.166 250.191 286.204C253.595 293.322 261.083 298.373 269.727 299.136C278.454 299.909 289.457 296.399 291.614 289.824C293.27 284.778 289.338 279.097 284.703 275.85C273.7 268.156 258.953 274.298 253.602 267.465C250.282 263.231 253.386 257.594 253.602 257.221C256.852 251.534 264.876 250.195 267.423 249.768C269.671 249.395 278.154 247.974 284.703 252.565C288.948 255.537 290.118 259.447 290.466 260.95" stroke="#FA512F" stroke-width="6" stroke-miterlimit="10" stroke-linecap="round" stroke-linejoin="round"/>
<path d="M4.94863 249.422C4.56586 264.35 3.38277 283.347 3 298.274" stroke="#FA512F" stroke-width="6" stroke-miterlimit="10" stroke-linecap="round" stroke-linejoin="round"/>
</svg>
