<svg width="360" height="800" viewBox="0 0 360 800" fill="none" xmlns="http://www.w3.org/2000/svg">
<rect width="360" height="800" fill="white"/>
<rect x="28" y="340" width="305" height="41" rx="8" fill="#F1EBEB" fill-opacity="0.7"/>
<rect x="28" y="403" width="305" height="40" rx="8" fill="#F1EBEB" fill-opacity="0.7"/>
<rect x="75" y="500" width="210" height="50" rx="8" fill="#FA512F" fill-opacity="0.9"/>
<rect x="75" y="681" width="210" height="50" rx="8" fill="#FA512F" fill-opacity="0.95"/>
<path d="M128.4 713V698.6H134.35C134.49 698.6 134.67 698.607 134.89 698.62C135.11 698.627 135.313 698.647 135.5 698.68C136.333 698.807 137.02 699.083 137.56 699.51C138.107 699.937 138.51 700.477 138.77 701.13C139.037 701.777 139.17 702.497 139.17 703.29C139.17 704.463 138.873 705.473 138.28 706.32C137.687 707.16 136.777 707.68 135.55 707.88L134.52 707.97H130.81V713H128.4ZM136.67 713L133.83 707.14L136.28 706.6L139.4 713H136.67ZM130.81 705.72H134.25C134.383 705.72 134.533 705.713 134.7 705.7C134.867 705.687 135.02 705.66 135.16 705.62C135.56 705.52 135.873 705.343 136.1 705.09C136.333 704.837 136.497 704.55 136.59 704.23C136.69 703.91 136.74 703.597 136.74 703.29C136.74 702.983 136.69 702.67 136.59 702.35C136.497 702.023 136.333 701.733 136.1 701.48C135.873 701.227 135.56 701.05 135.16 700.95C135.02 700.91 134.867 700.887 134.7 700.88C134.533 700.867 134.383 700.86 134.25 700.86H130.81V705.72ZM146.513 713.3C145.42 713.3 144.46 713.063 143.633 712.59C142.806 712.117 142.16 711.46 141.693 710.62C141.233 709.78 141.003 708.813 141.003 707.72C141.003 706.54 141.23 705.517 141.683 704.65C142.136 703.777 142.766 703.1 143.573 702.62C144.38 702.14 145.313 701.9 146.373 701.9C147.493 701.9 148.443 702.163 149.223 702.69C150.01 703.21 150.593 703.947 150.973 704.9C151.353 705.853 151.496 706.977 151.403 708.27H149.013V707.39C149.006 706.217 148.8 705.36 148.393 704.82C147.986 704.28 147.346 704.01 146.473 704.01C145.486 704.01 144.753 704.317 144.273 704.93C143.793 705.537 143.553 706.427 143.553 707.6C143.553 708.693 143.793 709.54 144.273 710.14C144.753 710.74 145.453 711.04 146.373 711.04C146.966 711.04 147.476 710.91 147.903 710.65C148.336 710.383 148.67 710 148.903 709.5L151.283 710.22C150.87 711.193 150.23 711.95 149.363 712.49C148.503 713.03 147.553 713.3 146.513 713.3ZM142.793 708.27V706.45H150.223V708.27H142.793ZM158.174 718.1C157.574 718.1 156.998 718.007 156.444 717.82C155.898 717.633 155.404 717.363 154.964 717.01C154.524 716.663 154.164 716.243 153.884 715.75L156.104 714.65C156.311 715.043 156.601 715.333 156.974 715.52C157.354 715.713 157.758 715.81 158.184 715.81C158.684 715.81 159.131 715.72 159.524 715.54C159.918 715.367 160.221 715.107 160.434 714.76C160.654 714.42 160.758 713.993 160.744 713.48V710.41H161.044V702.2H163.154V713.52C163.154 713.793 163.141 714.053 163.114 714.3C163.094 714.553 163.058 714.8 163.004 715.04C162.844 715.74 162.538 716.313 162.084 716.76C161.631 717.213 161.068 717.55 160.394 717.77C159.728 717.99 158.988 718.1 158.174 718.1ZM157.964 713.3C156.971 713.3 156.104 713.05 155.364 712.55C154.624 712.05 154.051 711.37 153.644 710.51C153.238 709.65 153.034 708.68 153.034 707.6C153.034 706.507 153.238 705.533 153.644 704.68C154.058 703.82 154.641 703.143 155.394 702.65C156.148 702.15 157.034 701.9 158.054 701.9C159.081 701.9 159.941 702.15 160.634 702.65C161.334 703.143 161.864 703.82 162.224 704.68C162.584 705.54 162.764 706.513 162.764 707.6C162.764 708.673 162.584 709.643 162.224 710.51C161.864 711.37 161.328 712.05 160.614 712.55C159.901 713.05 159.018 713.3 157.964 713.3ZM158.334 711.14C158.981 711.14 159.501 710.993 159.894 710.7C160.294 710.4 160.584 709.983 160.764 709.45C160.951 708.917 161.044 708.3 161.044 707.6C161.044 706.893 160.951 706.277 160.764 705.75C160.584 705.217 160.301 704.803 159.914 704.51C159.528 704.21 159.028 704.06 158.414 704.06C157.768 704.06 157.234 704.22 156.814 704.54C156.394 704.853 156.084 705.28 155.884 705.82C155.684 706.353 155.584 706.947 155.584 707.6C155.584 708.26 155.681 708.86 155.874 709.4C156.074 709.933 156.378 710.357 156.784 710.67C157.191 710.983 157.708 711.14 158.334 711.14ZM168.309 700.65H166.479L168.029 696.95H169.859L168.309 700.65ZM166.159 713V702.2H168.569V713H166.159ZM175.734 713.3C174.401 713.3 173.317 713 172.484 712.4C171.651 711.8 171.144 710.957 170.964 709.87L173.424 709.49C173.551 710.023 173.831 710.443 174.264 710.75C174.697 711.057 175.244 711.21 175.904 711.21C176.484 711.21 176.931 711.097 177.244 710.87C177.564 710.637 177.724 710.32 177.724 709.92C177.724 709.673 177.664 709.477 177.544 709.33C177.431 709.177 177.177 709.03 176.784 708.89C176.391 708.75 175.787 708.573 174.974 708.36C174.067 708.12 173.347 707.863 172.814 707.59C172.281 707.31 171.897 706.98 171.664 706.6C171.431 706.22 171.314 705.76 171.314 705.22C171.314 704.547 171.491 703.96 171.844 703.46C172.197 702.96 172.691 702.577 173.324 702.31C173.957 702.037 174.704 701.9 175.564 701.9C176.404 701.9 177.147 702.03 177.794 702.29C178.447 702.55 178.974 702.92 179.374 703.4C179.774 703.88 180.021 704.443 180.114 705.09L177.654 705.53C177.594 705.07 177.384 704.707 177.024 704.44C176.671 704.173 176.197 704.023 175.604 703.99C175.037 703.957 174.581 704.043 174.234 704.25C173.887 704.45 173.714 704.733 173.714 705.1C173.714 705.307 173.784 705.483 173.924 705.63C174.064 705.777 174.344 705.923 174.764 706.07C175.191 706.217 175.824 706.397 176.664 706.61C177.524 706.83 178.211 707.083 178.724 707.37C179.244 707.65 179.617 707.987 179.844 708.38C180.077 708.773 180.194 709.25 180.194 709.81C180.194 710.897 179.797 711.75 179.004 712.37C178.217 712.99 177.127 713.3 175.734 713.3ZM188.714 713C188.001 713.133 187.301 713.19 186.614 713.17C185.934 713.157 185.324 713.033 184.784 712.8C184.244 712.56 183.834 712.183 183.554 711.67C183.308 711.203 183.178 710.727 183.164 710.24C183.151 709.753 183.144 709.203 183.144 708.59V699.2H185.544V708.45C185.544 708.883 185.548 709.263 185.554 709.59C185.568 709.917 185.638 710.183 185.764 710.39C186.004 710.79 186.388 711.013 186.914 711.06C187.441 711.107 188.041 711.08 188.714 710.98V713ZM181.184 704.09V702.2H188.714V704.09H181.184ZM191.037 713V702.2H193.167V704.83L192.907 704.49C193.04 704.13 193.217 703.803 193.437 703.51C193.663 703.21 193.933 702.963 194.247 702.77C194.513 702.59 194.807 702.45 195.127 702.35C195.453 702.243 195.787 702.18 196.127 702.16C196.467 702.133 196.797 702.147 197.117 702.2V704.45C196.797 704.357 196.427 704.327 196.007 704.36C195.593 704.393 195.22 704.51 194.887 704.71C194.553 704.89 194.28 705.12 194.067 705.4C193.86 705.68 193.707 706 193.607 706.36C193.507 706.713 193.457 707.097 193.457 707.51V713H191.037ZM201.791 713.3C201.011 713.3 200.351 713.153 199.811 712.86C199.271 712.56 198.861 712.163 198.581 711.67C198.308 711.177 198.171 710.633 198.171 710.04C198.171 709.52 198.258 709.053 198.431 708.64C198.604 708.22 198.871 707.86 199.231 707.56C199.591 707.253 200.058 707.003 200.631 706.81C201.064 706.67 201.571 706.543 202.151 706.43C202.738 706.317 203.371 706.213 204.051 706.12C204.738 706.02 205.454 705.913 206.201 705.8L205.341 706.29C205.348 705.543 205.181 704.993 204.841 704.64C204.501 704.287 203.928 704.11 203.121 704.11C202.634 704.11 202.164 704.223 201.711 704.45C201.258 704.677 200.941 705.067 200.761 705.62L198.561 704.93C198.828 704.017 199.334 703.283 200.081 702.73C200.834 702.177 201.848 701.9 203.121 701.9C204.081 701.9 204.924 702.057 205.651 702.37C206.384 702.683 206.928 703.197 207.281 703.91C207.474 704.29 207.591 704.68 207.631 705.08C207.671 705.473 207.691 705.903 207.691 706.37V713H205.581V710.66L205.931 711.04C205.444 711.82 204.874 712.393 204.221 712.76C203.574 713.12 202.764 713.3 201.791 713.3ZM202.271 711.38C202.818 711.38 203.284 711.283 203.671 711.09C204.058 710.897 204.364 710.66 204.591 710.38C204.824 710.1 204.981 709.837 205.061 709.59C205.188 709.283 205.258 708.933 205.271 708.54C205.291 708.14 205.301 707.817 205.301 707.57L206.041 707.79C205.314 707.903 204.691 708.003 204.171 708.09C203.651 708.177 203.204 708.26 202.831 708.34C202.458 708.413 202.128 708.497 201.841 708.59C201.561 708.69 201.324 708.807 201.131 708.94C200.938 709.073 200.788 709.227 200.681 709.4C200.581 709.573 200.531 709.777 200.531 710.01C200.531 710.277 200.598 710.513 200.731 710.72C200.864 710.92 201.058 711.08 201.311 711.2C201.571 711.32 201.891 711.38 202.271 711.38ZM216.625 713C215.911 713.133 215.211 713.19 214.525 713.17C213.845 713.157 213.235 713.033 212.695 712.8C212.155 712.56 211.745 712.183 211.465 711.67C211.218 711.203 211.088 710.727 211.075 710.24C211.061 709.753 211.055 709.203 211.055 708.59V699.2H213.455V708.45C213.455 708.883 213.458 709.263 213.465 709.59C213.478 709.917 213.548 710.183 213.675 710.39C213.915 710.79 214.298 711.013 214.825 711.06C215.351 711.107 215.951 711.08 216.625 710.98V713ZM209.095 704.09V702.2H216.625V704.09H209.095ZM223.31 713.3C222.217 713.3 221.257 713.063 220.43 712.59C219.603 712.117 218.957 711.46 218.49 710.62C218.03 709.78 217.8 708.813 217.8 707.72C217.8 706.54 218.027 705.517 218.48 704.65C218.933 703.777 219.563 703.1 220.37 702.62C221.177 702.14 222.11 701.9 223.17 701.9C224.29 701.9 225.24 702.163 226.02 702.69C226.807 703.21 227.39 703.947 227.77 704.9C228.15 705.853 228.293 706.977 228.2 708.27H225.81V707.39C225.803 706.217 225.597 705.36 225.19 704.82C224.783 704.28 224.143 704.01 223.27 704.01C222.283 704.01 221.55 704.317 221.07 704.93C220.59 705.537 220.35 706.427 220.35 707.6C220.35 708.693 220.59 709.54 221.07 710.14C221.55 710.74 222.25 711.04 223.17 711.04C223.763 711.04 224.273 710.91 224.7 710.65C225.133 710.383 225.467 710 225.7 709.5L228.08 710.22C227.667 711.193 227.027 711.95 226.16 712.49C225.3 713.03 224.35 713.3 223.31 713.3ZM219.59 708.27V706.45H227.02V708.27H219.59Z" fill="white"/>
<path d="M149.841 532V517.6H159.141V519.86H152.251V523.41H157.941V525.67H152.251V529.74H159.141V532H149.841ZM169.011 532V526.8C169.011 526.46 168.987 526.083 168.941 525.67C168.894 525.257 168.784 524.86 168.611 524.48C168.444 524.093 168.191 523.777 167.851 523.53C167.517 523.283 167.064 523.16 166.491 523.16C166.184 523.16 165.881 523.21 165.581 523.31C165.281 523.41 165.007 523.583 164.761 523.83C164.521 524.07 164.327 524.403 164.181 524.83C164.034 525.25 163.961 525.79 163.961 526.45L162.531 525.84C162.531 524.92 162.707 524.087 163.061 523.34C163.421 522.593 163.947 522 164.641 521.56C165.334 521.113 166.187 520.89 167.201 520.89C168.001 520.89 168.661 521.023 169.181 521.29C169.701 521.557 170.114 521.897 170.421 522.31C170.727 522.723 170.954 523.163 171.101 523.63C171.247 524.097 171.341 524.54 171.381 524.96C171.427 525.373 171.451 525.71 171.451 525.97V532H169.011ZM161.521 532V521.2H163.671V524.55H163.961V532H161.521ZM180.39 532C179.677 532.133 178.977 532.19 178.29 532.17C177.61 532.157 177 532.033 176.46 531.8C175.92 531.56 175.51 531.183 175.23 530.67C174.983 530.203 174.853 529.727 174.84 529.24C174.827 528.753 174.82 528.203 174.82 527.59V518.2H177.22V527.45C177.22 527.883 177.223 528.263 177.23 528.59C177.243 528.917 177.313 529.183 177.44 529.39C177.68 529.79 178.063 530.013 178.59 530.06C179.117 530.107 179.717 530.08 180.39 529.98V532ZM172.86 523.09V521.2H180.39V523.09H172.86ZM182.713 532V521.2H184.843V523.83L184.583 523.49C184.716 523.13 184.893 522.803 185.113 522.51C185.339 522.21 185.609 521.963 185.923 521.77C186.189 521.59 186.483 521.45 186.803 521.35C187.129 521.243 187.463 521.18 187.803 521.16C188.143 521.133 188.473 521.147 188.793 521.2V523.45C188.473 523.357 188.103 523.327 187.683 523.36C187.269 523.393 186.896 523.51 186.563 523.71C186.229 523.89 185.956 524.12 185.743 524.4C185.536 524.68 185.383 525 185.283 525.36C185.183 525.713 185.133 526.097 185.133 526.51V532H182.713ZM193.467 532.3C192.687 532.3 192.027 532.153 191.487 531.86C190.947 531.56 190.537 531.163 190.257 530.67C189.984 530.177 189.847 529.633 189.847 529.04C189.847 528.52 189.934 528.053 190.107 527.64C190.28 527.22 190.547 526.86 190.907 526.56C191.267 526.253 191.734 526.003 192.307 525.81C192.74 525.67 193.247 525.543 193.827 525.43C194.414 525.317 195.047 525.213 195.727 525.12C196.414 525.02 197.13 524.913 197.877 524.8L197.017 525.29C197.024 524.543 196.857 523.993 196.517 523.64C196.177 523.287 195.604 523.11 194.797 523.11C194.31 523.11 193.84 523.223 193.387 523.45C192.934 523.677 192.617 524.067 192.437 524.62L190.237 523.93C190.504 523.017 191.01 522.283 191.757 521.73C192.51 521.177 193.524 520.9 194.797 520.9C195.757 520.9 196.6 521.057 197.327 521.37C198.06 521.683 198.604 522.197 198.957 522.91C199.15 523.29 199.267 523.68 199.307 524.08C199.347 524.473 199.367 524.903 199.367 525.37V532H197.257V529.66L197.607 530.04C197.12 530.82 196.55 531.393 195.897 531.76C195.25 532.12 194.44 532.3 193.467 532.3ZM193.947 530.38C194.494 530.38 194.96 530.283 195.347 530.09C195.734 529.897 196.04 529.66 196.267 529.38C196.5 529.1 196.657 528.837 196.737 528.59C196.864 528.283 196.934 527.933 196.947 527.54C196.967 527.14 196.977 526.817 196.977 526.57L197.717 526.79C196.99 526.903 196.367 527.003 195.847 527.09C195.327 527.177 194.88 527.26 194.507 527.34C194.134 527.413 193.804 527.497 193.517 527.59C193.237 527.69 193 527.807 192.807 527.94C192.614 528.073 192.464 528.227 192.357 528.4C192.257 528.573 192.207 528.777 192.207 529.01C192.207 529.277 192.274 529.513 192.407 529.72C192.54 529.92 192.734 530.08 192.987 530.2C193.247 530.32 193.567 530.38 193.947 530.38ZM201.97 532V521.2H204.1V523.83L203.84 523.49C203.974 523.13 204.15 522.803 204.37 522.51C204.597 522.21 204.867 521.963 205.18 521.77C205.447 521.59 205.74 521.45 206.06 521.35C206.387 521.243 206.72 521.18 207.06 521.16C207.4 521.133 207.73 521.147 208.05 521.2V523.45C207.73 523.357 207.36 523.327 206.94 523.36C206.527 523.393 206.154 523.51 205.82 523.71C205.487 523.89 205.214 524.12 205 524.4C204.794 524.68 204.64 525 204.54 525.36C204.44 525.713 204.39 526.097 204.39 526.51V532H201.97Z" fill="white"/>
<circle cx="126" cy="606" r="30" fill="#D9D9D9" fill-opacity="0.9"/>
<circle cx="233" cy="606" r="30" fill="#D9D9D9" fill-opacity="0.9"/>
<g clip-path="url(#clip0_410_467)">
<path d="M247.062 605.531C247.062 597.504 240.559 591 232.531 591C224.504 591 218 597.504 218 605.531C218 612.784 223.314 618.796 230.261 619.887V609.732H226.569V605.531H230.261V602.33C230.261 598.688 232.429 596.677 235.749 596.677C237.339 596.677 239.002 596.96 239.002 596.96V600.534H237.17C235.365 600.534 234.802 601.655 234.802 602.804V605.531H238.832L238.187 609.732H234.802V619.887C241.749 618.796 247.062 612.784 247.062 605.531Z" fill="#3B5998"/>
</g>
<path d="M60.108 357.29H57.983C57.9223 356.941 57.8106 356.633 57.6477 356.364C57.4848 356.091 57.2822 355.86 57.0398 355.67C56.7973 355.481 56.5208 355.339 56.2102 355.244C55.9034 355.146 55.572 355.097 55.2159 355.097C54.5833 355.097 54.0227 355.256 53.5341 355.574C53.0455 355.888 52.6629 356.35 52.3864 356.96C52.1098 357.566 51.9716 358.307 51.9716 359.182C51.9716 360.072 52.1098 360.822 52.3864 361.432C52.6667 362.038 53.0492 362.496 53.5341 362.807C54.0227 363.114 54.5814 363.267 55.2102 363.267C55.5587 363.267 55.8845 363.222 56.1875 363.131C56.4943 363.036 56.7689 362.898 57.0114 362.716C57.2576 362.534 57.464 362.311 57.6307 362.045C57.8011 361.78 57.9186 361.477 57.983 361.136L60.108 361.148C60.0284 361.701 59.8561 362.22 59.5909 362.705C59.3295 363.189 58.9867 363.617 58.5625 363.989C58.1383 364.356 57.642 364.644 57.0739 364.852C56.5057 365.057 55.875 365.159 55.1818 365.159C54.1591 365.159 53.2462 364.922 52.4432 364.449C51.6402 363.975 51.0076 363.292 50.5455 362.398C50.0833 361.504 49.8523 360.432 49.8523 359.182C49.8523 357.928 50.0852 356.856 50.5511 355.966C51.017 355.072 51.6515 354.388 52.4545 353.915C53.2576 353.441 54.1667 353.205 55.1818 353.205C55.8295 353.205 56.4318 353.295 56.9886 353.477C57.5455 353.659 58.0417 353.926 58.4773 354.278C58.9129 354.627 59.2708 355.055 59.5511 355.562C59.8352 356.066 60.0208 356.642 60.108 357.29ZM65.7543 365.17C64.902 365.17 64.1634 364.983 63.5384 364.608C62.9134 364.233 62.4285 363.708 62.0838 363.034C61.7429 362.36 61.5724 361.572 61.5724 360.67C61.5724 359.769 61.7429 358.979 62.0838 358.301C62.4285 357.623 62.9134 357.097 63.5384 356.722C64.1634 356.347 64.902 356.159 65.7543 356.159C66.6065 356.159 67.3452 356.347 67.9702 356.722C68.5952 357.097 69.0781 357.623 69.419 358.301C69.7637 358.979 69.9361 359.769 69.9361 360.67C69.9361 361.572 69.7637 362.36 69.419 363.034C69.0781 363.708 68.5952 364.233 67.9702 364.608C67.3452 364.983 66.6065 365.17 65.7543 365.17ZM65.7656 363.523C66.2277 363.523 66.6141 363.396 66.9247 363.142C67.2353 362.884 67.4664 362.54 67.6179 362.108C67.7732 361.676 67.8509 361.195 67.8509 360.665C67.8509 360.131 67.7732 359.648 67.6179 359.216C67.4664 358.78 67.2353 358.434 66.9247 358.176C66.6141 357.919 66.2277 357.79 65.7656 357.79C65.2921 357.79 64.8982 357.919 64.5838 358.176C64.2732 358.434 64.0402 358.78 63.8849 359.216C63.7334 359.648 63.6577 360.131 63.6577 360.665C63.6577 361.195 63.7334 361.676 63.8849 362.108C64.0402 362.54 64.2732 362.884 64.5838 363.142C64.8982 363.396 65.2921 363.523 65.7656 363.523ZM71.6818 365V356.273H73.6761V357.727H73.767C73.9261 357.223 74.1989 356.835 74.5852 356.562C74.9754 356.286 75.4205 356.148 75.9205 356.148C76.0341 356.148 76.161 356.153 76.3011 356.165C76.4451 356.172 76.5644 356.186 76.6591 356.205V358.097C76.572 358.066 76.4337 358.04 76.2443 358.017C76.0587 357.991 75.8788 357.977 75.7045 357.977C75.3295 357.977 74.9924 358.059 74.6932 358.222C74.3977 358.381 74.1648 358.602 73.9943 358.886C73.8239 359.17 73.7386 359.498 73.7386 359.869V365H71.6818ZM78.0256 365V356.273H80.0199V357.727H80.1108C80.2699 357.223 80.5426 356.835 80.929 356.562C81.3191 356.286 81.7642 356.148 82.2642 356.148C82.3778 356.148 82.5047 356.153 82.6449 356.165C82.7888 356.172 82.9081 356.186 83.0028 356.205V358.097C82.9157 358.066 82.7775 358.04 82.5881 358.017C82.4025 357.991 82.2225 357.977 82.0483 357.977C81.6733 357.977 81.3362 358.059 81.0369 358.222C80.7415 358.381 80.5085 358.602 80.3381 358.886C80.1676 359.17 80.0824 359.498 80.0824 359.869V365H78.0256ZM87.8736 365.17C86.9986 365.17 86.2429 364.989 85.6065 364.625C84.974 364.258 84.4872 363.739 84.1463 363.068C83.8054 362.394 83.6349 361.6 83.6349 360.688C83.6349 359.79 83.8054 359.002 84.1463 358.324C84.491 357.642 84.9721 357.112 85.5895 356.733C86.2069 356.35 86.9323 356.159 87.7656 356.159C88.3035 356.159 88.8111 356.246 89.2884 356.42C89.7694 356.591 90.1937 356.856 90.5611 357.216C90.9323 357.576 91.224 358.034 91.4361 358.591C91.6482 359.144 91.7543 359.803 91.7543 360.568V361.199H84.6009V359.812H89.7827C89.7789 359.419 89.6937 359.068 89.527 358.761C89.3603 358.451 89.1274 358.206 88.8281 358.028C88.5327 357.85 88.188 357.761 87.794 357.761C87.3736 357.761 87.0043 357.864 86.6861 358.068C86.3679 358.269 86.1198 358.534 85.9418 358.864C85.7675 359.189 85.6785 359.547 85.6747 359.938V361.148C85.6747 361.655 85.7675 362.091 85.9531 362.455C86.1387 362.814 86.3982 363.091 86.7315 363.284C87.0649 363.473 87.455 363.568 87.902 363.568C88.2012 363.568 88.4721 363.527 88.7145 363.443C88.9569 363.356 89.1671 363.229 89.3452 363.062C89.5232 362.896 89.6577 362.689 89.7486 362.443L91.669 362.659C91.5478 363.167 91.3168 363.61 90.9759 363.989C90.6387 364.364 90.2069 364.655 89.6804 364.864C89.1539 365.068 88.5516 365.17 87.8736 365.17ZM97.3011 365.17C96.4489 365.17 95.7102 364.983 95.0852 364.608C94.4602 364.233 93.9754 363.708 93.6307 363.034C93.2898 362.36 93.1193 361.572 93.1193 360.67C93.1193 359.769 93.2898 358.979 93.6307 358.301C93.9754 357.623 94.4602 357.097 95.0852 356.722C95.7102 356.347 96.4489 356.159 97.3011 356.159C98.1534 356.159 98.892 356.347 99.517 356.722C100.142 357.097 100.625 357.623 100.966 358.301C101.311 358.979 101.483 359.769 101.483 360.67C101.483 361.572 101.311 362.36 100.966 363.034C100.625 363.708 100.142 364.233 99.517 364.608C98.892 364.983 98.1534 365.17 97.3011 365.17ZM97.3125 363.523C97.7746 363.523 98.161 363.396 98.4716 363.142C98.7822 362.884 99.0133 362.54 99.1648 362.108C99.3201 361.676 99.3977 361.195 99.3977 360.665C99.3977 360.131 99.3201 359.648 99.1648 359.216C99.0133 358.78 98.7822 358.434 98.4716 358.176C98.161 357.919 97.7746 357.79 97.3125 357.79C96.839 357.79 96.4451 357.919 96.1307 358.176C95.8201 358.434 95.5871 358.78 95.4318 359.216C95.2803 359.648 95.2045 360.131 95.2045 360.665C95.2045 361.195 95.2803 361.676 95.4318 362.108C95.5871 362.54 95.8201 362.884 96.1307 363.142C96.4451 363.396 96.839 363.523 97.3125 363.523ZM107.979 352.818L104.229 366.75H102.428L106.178 352.818H107.979ZM109.291 365V356.273H111.257V357.756H111.359C111.541 357.256 111.842 356.866 112.263 356.585C112.683 356.301 113.185 356.159 113.768 356.159C114.359 356.159 114.857 356.303 115.263 356.591C115.672 356.875 115.96 357.263 116.126 357.756H116.217C116.411 357.271 116.736 356.884 117.195 356.597C117.657 356.305 118.204 356.159 118.837 356.159C119.64 356.159 120.295 356.413 120.803 356.92C121.31 357.428 121.564 358.169 121.564 359.142V365H119.501V359.46C119.501 358.919 119.357 358.523 119.07 358.273C118.782 358.019 118.429 357.892 118.013 357.892C117.517 357.892 117.128 358.047 116.848 358.358C116.571 358.665 116.433 359.064 116.433 359.557V365H114.416V359.375C114.416 358.924 114.28 358.564 114.007 358.295C113.738 358.027 113.386 357.892 112.95 357.892C112.655 357.892 112.386 357.968 112.143 358.119C111.901 358.267 111.708 358.477 111.564 358.75C111.42 359.019 111.348 359.333 111.348 359.693V365H109.291ZM127.457 365.17C126.605 365.17 125.866 364.983 125.241 364.608C124.616 364.233 124.132 363.708 123.787 363.034C123.446 362.36 123.276 361.572 123.276 360.67C123.276 359.769 123.446 358.979 123.787 358.301C124.132 357.623 124.616 357.097 125.241 356.722C125.866 356.347 126.605 356.159 127.457 356.159C128.31 356.159 129.048 356.347 129.673 356.722C130.298 357.097 130.781 357.623 131.122 358.301C131.467 358.979 131.639 359.769 131.639 360.67C131.639 361.572 131.467 362.36 131.122 363.034C130.781 363.708 130.298 364.233 129.673 364.608C129.048 364.983 128.31 365.17 127.457 365.17ZM127.469 363.523C127.931 363.523 128.317 363.396 128.628 363.142C128.938 362.884 129.17 362.54 129.321 362.108C129.476 361.676 129.554 361.195 129.554 360.665C129.554 360.131 129.476 359.648 129.321 359.216C129.17 358.78 128.938 358.434 128.628 358.176C128.317 357.919 127.931 357.79 127.469 357.79C126.995 357.79 126.601 357.919 126.287 358.176C125.976 358.434 125.743 358.78 125.588 359.216C125.437 359.648 125.361 360.131 125.361 360.665C125.361 361.195 125.437 361.676 125.588 362.108C125.743 362.54 125.976 362.884 126.287 363.142C126.601 363.396 126.995 363.523 127.469 363.523ZM126.668 355.125L127.94 352.528H129.952L128.207 355.125H126.668ZM140.884 356.273L137.776 365H135.503L132.395 356.273H134.588L136.594 362.756H136.685L138.696 356.273H140.884ZM142.307 365V356.273H144.364V365H142.307ZM143.341 355.034C143.015 355.034 142.735 354.926 142.5 354.71C142.265 354.491 142.148 354.227 142.148 353.92C142.148 353.61 142.265 353.347 142.5 353.131C142.735 352.911 143.015 352.801 143.341 352.801C143.67 352.801 143.951 352.911 144.182 353.131C144.417 353.347 144.534 353.61 144.534 353.92C144.534 354.227 144.417 354.491 144.182 354.71C143.951 354.926 143.67 355.034 143.341 355.034ZM148.536 353.364V365H146.479V353.364H148.536Z" fill="black" fill-opacity="0.47"/>
<path d="M60.108 423.29H57.983C57.9223 422.941 57.8106 422.633 57.6477 422.364C57.4848 422.091 57.2822 421.86 57.0398 421.67C56.7973 421.481 56.5208 421.339 56.2102 421.244C55.9034 421.146 55.572 421.097 55.2159 421.097C54.5833 421.097 54.0227 421.256 53.5341 421.574C53.0455 421.888 52.6629 422.35 52.3864 422.96C52.1098 423.566 51.9716 424.307 51.9716 425.182C51.9716 426.072 52.1098 426.822 52.3864 427.432C52.6667 428.038 53.0492 428.496 53.5341 428.807C54.0227 429.114 54.5814 429.267 55.2102 429.267C55.5587 429.267 55.8845 429.222 56.1875 429.131C56.4943 429.036 56.7689 428.898 57.0114 428.716C57.2576 428.534 57.464 428.311 57.6307 428.045C57.8011 427.78 57.9186 427.477 57.983 427.136L60.108 427.148C60.0284 427.701 59.8561 428.22 59.5909 428.705C59.3295 429.189 58.9867 429.617 58.5625 429.989C58.1383 430.356 57.642 430.644 57.0739 430.852C56.5057 431.057 55.875 431.159 55.1818 431.159C54.1591 431.159 53.2462 430.922 52.4432 430.449C51.6402 429.975 51.0076 429.292 50.5455 428.398C50.0833 427.504 49.8523 426.432 49.8523 425.182C49.8523 423.928 50.0852 422.856 50.5511 421.966C51.017 421.072 51.6515 420.388 52.4545 419.915C53.2576 419.441 54.1667 419.205 55.1818 419.205C55.8295 419.205 56.4318 419.295 56.9886 419.477C57.5455 419.659 58.0417 419.926 58.4773 420.278C58.9129 420.627 59.2708 421.055 59.5511 421.562C59.8352 422.066 60.0208 422.642 60.108 423.29ZM65.7543 431.17C64.902 431.17 64.1634 430.983 63.5384 430.608C62.9134 430.233 62.4285 429.708 62.0838 429.034C61.7429 428.36 61.5724 427.572 61.5724 426.67C61.5724 425.769 61.7429 424.979 62.0838 424.301C62.4285 423.623 62.9134 423.097 63.5384 422.722C64.1634 422.347 64.902 422.159 65.7543 422.159C66.6065 422.159 67.3452 422.347 67.9702 422.722C68.5952 423.097 69.0781 423.623 69.419 424.301C69.7637 424.979 69.9361 425.769 69.9361 426.67C69.9361 427.572 69.7637 428.36 69.419 429.034C69.0781 429.708 68.5952 430.233 67.9702 430.608C67.3452 430.983 66.6065 431.17 65.7543 431.17ZM65.7656 429.523C66.2277 429.523 66.6141 429.396 66.9247 429.142C67.2353 428.884 67.4664 428.54 67.6179 428.108C67.7732 427.676 67.8509 427.195 67.8509 426.665C67.8509 426.131 67.7732 425.648 67.6179 425.216C67.4664 424.78 67.2353 424.434 66.9247 424.176C66.6141 423.919 66.2277 423.79 65.7656 423.79C65.2921 423.79 64.8982 423.919 64.5838 424.176C64.2732 424.434 64.0402 424.78 63.8849 425.216C63.7334 425.648 63.6577 426.131 63.6577 426.665C63.6577 427.195 63.7334 427.676 63.8849 428.108C64.0402 428.54 64.2732 428.884 64.5838 429.142C64.8982 429.396 65.2921 429.523 65.7656 429.523ZM73.7386 425.886V431H71.6818V422.273H73.6477V423.756H73.75C73.9508 423.267 74.2708 422.879 74.7102 422.591C75.1534 422.303 75.7008 422.159 76.3523 422.159C76.9545 422.159 77.4792 422.288 77.9261 422.545C78.3769 422.803 78.7254 423.176 78.9716 423.665C79.2216 424.153 79.3447 424.746 79.3409 425.443V431H77.2841V425.761C77.2841 425.178 77.1326 424.722 76.8295 424.392C76.5303 424.062 76.1155 423.898 75.5852 423.898C75.2254 423.898 74.9053 423.977 74.625 424.136C74.3485 424.292 74.1307 424.517 73.9716 424.812C73.8163 425.108 73.7386 425.466 73.7386 425.886ZM85.7898 422.273V423.864H80.7727V422.273H85.7898ZM82.0114 420.182H84.0682V428.375C84.0682 428.652 84.1098 428.864 84.1932 429.011C84.2803 429.155 84.3939 429.254 84.5341 429.307C84.6742 429.36 84.8295 429.386 85 429.386C85.1288 429.386 85.2462 429.377 85.3523 429.358C85.4621 429.339 85.5455 429.322 85.6023 429.307L85.9489 430.915C85.839 430.953 85.6818 430.994 85.4773 431.04C85.2765 431.085 85.0303 431.112 84.7386 431.119C84.2235 431.134 83.7595 431.057 83.3466 430.886C82.9337 430.712 82.6061 430.443 82.3636 430.08C82.125 429.716 82.0076 429.261 82.0114 428.716V420.182ZM87.5099 431V422.273H89.5043V423.727H89.5952C89.7543 423.223 90.027 422.835 90.4134 422.562C90.8035 422.286 91.2486 422.148 91.7486 422.148C91.8622 422.148 91.9891 422.153 92.1293 422.165C92.2732 422.172 92.3925 422.186 92.4872 422.205V424.097C92.4001 424.066 92.2618 424.04 92.0724 424.017C91.8868 423.991 91.7069 423.977 91.5327 423.977C91.1577 423.977 90.8205 424.059 90.5213 424.222C90.2259 424.381 89.9929 424.602 89.8224 424.886C89.652 425.17 89.5668 425.498 89.5668 425.869V431H87.5099ZM96.2088 431.176C95.6558 431.176 95.1577 431.078 94.7145 430.881C94.2751 430.68 93.9266 430.384 93.669 429.994C93.4152 429.604 93.2884 429.123 93.2884 428.551C93.2884 428.059 93.3793 427.652 93.5611 427.33C93.7429 427.008 93.991 426.75 94.3054 426.557C94.6198 426.364 94.974 426.218 95.3679 426.119C95.7656 426.017 96.1766 425.943 96.6009 425.898C97.1122 425.845 97.527 425.797 97.8452 425.756C98.1634 425.71 98.3944 425.642 98.5384 425.551C98.6861 425.456 98.7599 425.311 98.7599 425.114V425.08C98.7599 424.652 98.633 424.32 98.3793 424.085C98.1255 423.85 97.7599 423.733 97.2827 423.733C96.7789 423.733 96.3793 423.843 96.0838 424.062C95.7921 424.282 95.5952 424.542 95.4929 424.841L93.5724 424.568C93.724 424.038 93.974 423.595 94.3224 423.239C94.6709 422.879 95.0971 422.61 95.6009 422.432C96.1046 422.25 96.6615 422.159 97.2713 422.159C97.6918 422.159 98.1103 422.208 98.527 422.307C98.9437 422.405 99.3243 422.568 99.669 422.795C100.014 423.019 100.29 423.324 100.499 423.71C100.711 424.097 100.817 424.58 100.817 425.159V431H98.8395V429.801H98.7713C98.6463 430.044 98.4702 430.271 98.2429 430.483C98.0194 430.691 97.7372 430.86 97.3963 430.989C97.0592 431.114 96.6634 431.176 96.2088 431.176ZM96.7429 429.665C97.1558 429.665 97.5137 429.583 97.8168 429.42C98.1198 429.254 98.3527 429.034 98.5156 428.761C98.6823 428.489 98.7656 428.191 98.7656 427.869V426.841C98.7012 426.894 98.5914 426.943 98.4361 426.989C98.2846 427.034 98.1141 427.074 97.9247 427.108C97.7353 427.142 97.5478 427.172 97.3622 427.199C97.1766 427.225 97.0156 427.248 96.8793 427.267C96.5724 427.309 96.2978 427.377 96.0554 427.472C95.813 427.566 95.6217 427.699 95.4815 427.869C95.3414 428.036 95.2713 428.252 95.2713 428.517C95.2713 428.896 95.4096 429.182 95.6861 429.375C95.9626 429.568 96.3149 429.665 96.7429 429.665ZM109.783 424.58L107.908 424.784C107.855 424.595 107.762 424.417 107.629 424.25C107.5 424.083 107.326 423.949 107.107 423.847C106.887 423.744 106.618 423.693 106.3 423.693C105.872 423.693 105.512 423.786 105.22 423.972C104.932 424.157 104.79 424.398 104.794 424.693C104.79 424.947 104.883 425.153 105.072 425.312C105.266 425.472 105.584 425.602 106.027 425.705L107.516 426.023C108.341 426.201 108.955 426.483 109.357 426.869C109.762 427.256 109.966 427.761 109.97 428.386C109.966 428.936 109.805 429.42 109.487 429.841C109.173 430.258 108.735 430.583 108.175 430.818C107.614 431.053 106.97 431.17 106.243 431.17C105.175 431.17 104.315 430.947 103.663 430.5C103.012 430.049 102.624 429.422 102.499 428.619L104.504 428.426C104.595 428.82 104.788 429.117 105.084 429.318C105.379 429.519 105.764 429.619 106.237 429.619C106.726 429.619 107.118 429.519 107.413 429.318C107.713 429.117 107.862 428.869 107.862 428.574C107.862 428.324 107.766 428.117 107.572 427.955C107.383 427.792 107.088 427.667 106.686 427.58L105.197 427.267C104.36 427.093 103.741 426.799 103.339 426.386C102.938 425.97 102.739 425.443 102.743 424.807C102.739 424.269 102.885 423.803 103.18 423.409C103.48 423.011 103.894 422.705 104.425 422.489C104.959 422.269 105.574 422.159 106.271 422.159C107.294 422.159 108.099 422.377 108.686 422.812C109.277 423.248 109.643 423.837 109.783 424.58ZM115.53 431.17C114.655 431.17 113.899 430.989 113.263 430.625C112.63 430.258 112.143 429.739 111.803 429.068C111.462 428.394 111.291 427.6 111.291 426.688C111.291 425.79 111.462 425.002 111.803 424.324C112.147 423.642 112.628 423.112 113.246 422.733C113.863 422.35 114.589 422.159 115.422 422.159C115.96 422.159 116.467 422.246 116.945 422.42C117.426 422.591 117.85 422.856 118.217 423.216C118.589 423.576 118.88 424.034 119.092 424.591C119.304 425.144 119.411 425.803 119.411 426.568V427.199H112.257V425.812H117.439C117.435 425.419 117.35 425.068 117.183 424.761C117.017 424.451 116.784 424.206 116.484 424.028C116.189 423.85 115.844 423.761 115.45 423.761C115.03 423.761 114.661 423.864 114.342 424.068C114.024 424.269 113.776 424.534 113.598 424.864C113.424 425.189 113.335 425.547 113.331 425.938V427.148C113.331 427.655 113.424 428.091 113.609 428.455C113.795 428.814 114.054 429.091 114.388 429.284C114.721 429.473 115.111 429.568 115.558 429.568C115.857 429.568 116.128 429.527 116.371 429.443C116.613 429.356 116.823 429.229 117.001 429.062C117.179 428.896 117.314 428.689 117.405 428.443L119.325 428.659C119.204 429.167 118.973 429.61 118.632 429.989C118.295 430.364 117.863 430.655 117.337 430.864C116.81 431.068 116.208 431.17 115.53 431.17ZM123.207 425.886V431H121.151V422.273H123.116V423.756H123.219C123.42 423.267 123.74 422.879 124.179 422.591C124.622 422.303 125.17 422.159 125.821 422.159C126.423 422.159 126.948 422.288 127.395 422.545C127.846 422.803 128.194 423.176 128.44 423.665C128.69 424.153 128.813 424.746 128.81 425.443V431H126.753V425.761C126.753 425.178 126.601 424.722 126.298 424.392C125.999 424.062 125.584 423.898 125.054 423.898C124.694 423.898 124.374 423.977 124.094 424.136C123.817 424.292 123.599 424.517 123.44 424.812C123.285 425.108 123.207 425.466 123.207 425.886ZM123.304 421.21L122.06 421.182C122.06 420.508 122.234 419.979 122.582 419.597C122.931 419.214 123.361 419.023 123.872 419.023C124.118 419.023 124.332 419.064 124.514 419.148C124.696 419.227 124.863 419.32 125.014 419.426C125.17 419.532 125.321 419.627 125.469 419.71C125.616 419.79 125.779 419.83 125.957 419.83C126.173 419.83 126.344 419.748 126.469 419.585C126.598 419.422 126.664 419.214 126.668 418.96L127.889 419.011C127.885 419.689 127.709 420.216 127.361 420.591C127.012 420.962 126.584 421.15 126.077 421.153C125.804 421.157 125.575 421.117 125.389 421.034C125.204 420.951 125.041 420.856 124.901 420.75C124.764 420.644 124.626 420.551 124.486 420.472C124.346 420.388 124.181 420.347 123.991 420.347C123.791 420.347 123.626 420.426 123.497 420.585C123.368 420.744 123.304 420.953 123.304 421.21ZM133.412 431.176C132.859 431.176 132.361 431.078 131.918 430.881C131.478 430.68 131.13 430.384 130.872 429.994C130.618 429.604 130.491 429.123 130.491 428.551C130.491 428.059 130.582 427.652 130.764 427.33C130.946 427.008 131.194 426.75 131.509 426.557C131.823 426.364 132.177 426.218 132.571 426.119C132.969 426.017 133.38 425.943 133.804 425.898C134.315 425.845 134.73 425.797 135.048 425.756C135.366 425.71 135.598 425.642 135.741 425.551C135.889 425.456 135.963 425.311 135.963 425.114V425.08C135.963 424.652 135.836 424.32 135.582 424.085C135.329 423.85 134.963 423.733 134.486 423.733C133.982 423.733 133.582 423.843 133.287 424.062C132.995 424.282 132.798 424.542 132.696 424.841L130.776 424.568C130.927 424.038 131.177 423.595 131.526 423.239C131.874 422.879 132.3 422.61 132.804 422.432C133.308 422.25 133.865 422.159 134.474 422.159C134.895 422.159 135.313 422.208 135.73 422.307C136.147 422.405 136.527 422.568 136.872 422.795C137.217 423.019 137.493 423.324 137.702 423.71C137.914 424.097 138.02 424.58 138.02 425.159V431H136.043V429.801H135.974C135.849 430.044 135.673 430.271 135.446 430.483C135.223 430.691 134.94 430.86 134.599 430.989C134.262 431.114 133.866 431.176 133.412 431.176ZM133.946 429.665C134.359 429.665 134.717 429.583 135.02 429.42C135.323 429.254 135.556 429.034 135.719 428.761C135.885 428.489 135.969 428.191 135.969 427.869V426.841C135.904 426.894 135.795 426.943 135.639 426.989C135.488 427.034 135.317 427.074 135.128 427.108C134.938 427.142 134.751 427.172 134.565 427.199C134.38 427.225 134.219 427.248 134.082 427.267C133.776 427.309 133.501 427.377 133.259 427.472C133.016 427.566 132.825 427.699 132.685 427.869C132.545 428.036 132.474 428.252 132.474 428.517C132.474 428.896 132.613 429.182 132.889 429.375C133.166 429.568 133.518 429.665 133.946 429.665Z" fill="black" fill-opacity="0.47"/>
<path d="M75.1832 467.568V467.636C75.1795 468.356 75.1037 468.932 74.956 469.364C74.812 469.792 74.6075 470.138 74.3423 470.403C74.0772 470.665 73.759 470.909 73.3878 471.136C73.1681 471.269 72.9673 471.43 72.7855 471.619C72.6075 471.809 72.4654 472.027 72.3594 472.273C72.2571 472.515 72.206 472.788 72.206 473.091C72.206 473.462 72.2931 473.784 72.4673 474.057C72.6416 474.33 72.8745 474.54 73.1662 474.688C73.4579 474.835 73.7817 474.909 74.1378 474.909C74.4484 474.909 74.7476 474.845 75.0355 474.716C75.3234 474.587 75.5639 474.384 75.7571 474.108C75.9541 473.831 76.0658 473.47 76.0923 473.023H77.5241C77.4976 473.667 77.331 474.218 77.0241 474.676C76.7173 475.134 76.312 475.485 75.8082 475.727C75.3082 475.97 74.7514 476.091 74.1378 476.091C73.4711 476.091 72.8897 475.958 72.3935 475.693C71.901 475.428 71.5185 475.064 71.2457 474.602C70.9768 474.14 70.8423 473.614 70.8423 473.023C70.8423 472.602 70.9048 472.223 71.0298 471.886C71.1586 471.549 71.3404 471.248 71.5753 470.983C71.8139 470.718 72.0999 470.485 72.4332 470.284C72.7666 470.076 73.0336 469.858 73.2344 469.631C73.4351 469.4 73.581 469.127 73.6719 468.812C73.7628 468.498 73.812 468.106 73.8196 467.636V467.568H75.1832ZM74.456 464.205C74.7363 464.205 74.9768 464.305 75.1776 464.506C75.3783 464.706 75.4787 464.947 75.4787 465.227C75.4787 465.508 75.3783 465.748 75.1776 465.949C74.9768 466.15 74.7363 466.25 74.456 466.25C74.1757 466.25 73.9351 466.15 73.7344 465.949C73.5336 465.748 73.4332 465.508 73.4332 465.227C73.4332 465.038 73.4787 464.867 73.5696 464.716C73.6643 464.561 73.7893 464.437 73.9446 464.347C74.0999 464.252 74.2704 464.205 74.456 464.205ZM79.5653 473V461.364H80.9744V466.545H87.179V461.364H88.5881V473H87.179V467.795H80.9744V473H79.5653ZM93.7955 473.205C93.2424 473.205 92.7405 473.1 92.2898 472.892C91.839 472.68 91.4811 472.375 91.2159 471.977C90.9508 471.576 90.8182 471.091 90.8182 470.523C90.8182 470.023 90.9167 469.617 91.1136 469.307C91.3106 468.992 91.5739 468.746 91.9034 468.568C92.233 468.39 92.5966 468.258 92.9943 468.17C93.3958 468.08 93.7992 468.008 94.2045 467.955C94.7348 467.886 95.1648 467.835 95.4943 467.801C95.8277 467.763 96.0701 467.701 96.2216 467.614C96.3769 467.527 96.4545 467.375 96.4545 467.159V467.114C96.4545 466.553 96.3011 466.117 95.9943 465.807C95.6913 465.496 95.2311 465.341 94.6136 465.341C93.9735 465.341 93.4716 465.481 93.108 465.761C92.7443 466.042 92.4886 466.341 92.3409 466.659L91.0682 466.205C91.2955 465.674 91.5985 465.261 91.9773 464.966C92.3598 464.667 92.7765 464.458 93.2273 464.341C93.6818 464.22 94.1288 464.159 94.5682 464.159C94.8485 464.159 95.1705 464.193 95.5341 464.261C95.9015 464.326 96.2557 464.46 96.5966 464.665C96.9413 464.869 97.2273 465.178 97.4545 465.591C97.6818 466.004 97.7955 466.557 97.7955 467.25V473H96.4545V471.818H96.3864C96.2955 472.008 96.1439 472.21 95.9318 472.426C95.7197 472.642 95.4375 472.826 95.0852 472.977C94.733 473.129 94.303 473.205 93.7955 473.205ZM94 472C94.5303 472 94.9773 471.896 95.3409 471.688C95.7083 471.479 95.9848 471.21 96.1705 470.881C96.3598 470.551 96.4545 470.205 96.4545 469.841V468.614C96.3977 468.682 96.2727 468.744 96.0795 468.801C95.8902 468.854 95.6705 468.902 95.4205 468.943C95.1742 468.981 94.9337 469.015 94.6989 469.045C94.4678 469.072 94.2803 469.095 94.1364 469.114C93.7879 469.159 93.4621 469.233 93.1591 469.335C92.8598 469.434 92.6174 469.583 92.4318 469.784C92.25 469.981 92.1591 470.25 92.1591 470.591C92.1591 471.057 92.3314 471.409 92.6761 471.648C93.0246 471.883 93.4659 472 94 472ZM106.425 466.227L105.22 466.568C105.144 466.367 105.033 466.172 104.885 465.983C104.741 465.79 104.544 465.631 104.294 465.506C104.044 465.381 103.724 465.318 103.334 465.318C102.8 465.318 102.355 465.441 101.999 465.688C101.646 465.93 101.47 466.239 101.47 466.614C101.47 466.947 101.591 467.21 101.834 467.403C102.076 467.597 102.455 467.758 102.97 467.886L104.266 468.205C105.046 468.394 105.627 468.684 106.01 469.074C106.393 469.46 106.584 469.958 106.584 470.568C106.584 471.068 106.44 471.515 106.152 471.909C105.868 472.303 105.47 472.614 104.959 472.841C104.447 473.068 103.853 473.182 103.175 473.182C102.285 473.182 101.548 472.989 100.964 472.602C100.381 472.216 100.012 471.652 99.8565 470.909L101.129 470.591C101.25 471.061 101.48 471.413 101.817 471.648C102.158 471.883 102.603 472 103.152 472C103.777 472 104.273 471.867 104.641 471.602C105.012 471.333 105.197 471.011 105.197 470.636C105.197 470.333 105.091 470.08 104.879 469.875C104.667 469.667 104.341 469.511 103.902 469.409L102.447 469.068C101.648 468.879 101.061 468.585 100.686 468.188C100.315 467.786 100.129 467.284 100.129 466.682C100.129 466.189 100.268 465.754 100.544 465.375C100.824 464.996 101.205 464.699 101.686 464.483C102.171 464.267 102.72 464.159 103.334 464.159C104.197 464.159 104.875 464.348 105.368 464.727C105.864 465.106 106.216 465.606 106.425 466.227ZM116.648 473.182C115.86 473.182 115.169 472.994 114.574 472.619C113.983 472.244 113.521 471.72 113.188 471.045C112.858 470.371 112.693 469.583 112.693 468.682C112.693 467.773 112.858 466.979 113.188 466.301C113.521 465.623 113.983 465.097 114.574 464.722C115.169 464.347 115.86 464.159 116.648 464.159C117.436 464.159 118.125 464.347 118.716 464.722C119.311 465.097 119.773 465.623 120.102 466.301C120.436 466.979 120.602 467.773 120.602 468.682C120.602 469.583 120.436 470.371 120.102 471.045C119.773 471.72 119.311 472.244 118.716 472.619C118.125 472.994 117.436 473.182 116.648 473.182ZM116.648 471.977C117.246 471.977 117.739 471.824 118.125 471.517C118.511 471.21 118.797 470.807 118.983 470.307C119.169 469.807 119.261 469.265 119.261 468.682C119.261 468.098 119.169 467.555 118.983 467.051C118.797 466.547 118.511 466.14 118.125 465.83C117.739 465.519 117.246 465.364 116.648 465.364C116.049 465.364 115.557 465.519 115.17 465.83C114.784 466.14 114.498 466.547 114.312 467.051C114.127 467.555 114.034 468.098 114.034 468.682C114.034 469.265 114.127 469.807 114.312 470.307C114.498 470.807 114.784 471.21 115.17 471.517C115.557 471.824 116.049 471.977 116.648 471.977ZM123.99 461.364V473H122.649V461.364H123.99ZM133.582 464.273L130.355 473H128.991L125.764 464.273H127.219L129.628 471.227H129.719L132.128 464.273H133.582ZM135.352 473V464.273H136.693V473H135.352ZM136.034 462.818C135.773 462.818 135.547 462.729 135.358 462.551C135.172 462.373 135.08 462.159 135.08 461.909C135.08 461.659 135.172 461.445 135.358 461.267C135.547 461.089 135.773 461 136.034 461C136.295 461 136.519 461.089 136.705 461.267C136.894 461.445 136.989 461.659 136.989 461.909C136.989 462.159 136.894 462.373 136.705 462.551C136.519 462.729 136.295 462.818 136.034 462.818ZM142.445 473.182C141.717 473.182 141.075 472.998 140.518 472.631C139.962 472.259 139.526 471.737 139.212 471.062C138.897 470.384 138.74 469.583 138.74 468.659C138.74 467.742 138.897 466.947 139.212 466.273C139.526 465.598 139.964 465.078 140.524 464.71C141.085 464.343 141.732 464.159 142.467 464.159C143.036 464.159 143.484 464.254 143.814 464.443C144.147 464.629 144.401 464.841 144.575 465.08C144.753 465.314 144.892 465.508 144.99 465.659H145.104V461.364H146.445V473H145.149V471.659H144.99C144.892 471.818 144.751 472.019 144.57 472.261C144.388 472.5 144.128 472.714 143.791 472.903C143.454 473.089 143.005 473.182 142.445 473.182ZM142.626 471.977C143.164 471.977 143.619 471.837 143.99 471.557C144.361 471.273 144.643 470.881 144.837 470.381C145.03 469.877 145.126 469.295 145.126 468.636C145.126 467.985 145.032 467.415 144.842 466.926C144.653 466.434 144.373 466.051 144.001 465.778C143.63 465.502 143.172 465.364 142.626 465.364C142.058 465.364 141.585 465.509 141.206 465.801C140.831 466.089 140.549 466.481 140.359 466.977C140.174 467.47 140.081 468.023 140.081 468.636C140.081 469.258 140.176 469.822 140.365 470.33C140.558 470.833 140.842 471.235 141.217 471.534C141.596 471.83 142.066 471.977 142.626 471.977ZM151.655 473.205C151.102 473.205 150.6 473.1 150.149 472.892C149.698 472.68 149.34 472.375 149.075 471.977C148.81 471.576 148.678 471.091 148.678 470.523C148.678 470.023 148.776 469.617 148.973 469.307C149.17 468.992 149.433 468.746 149.763 468.568C150.092 468.39 150.456 468.258 150.854 468.17C151.255 468.08 151.659 468.008 152.064 467.955C152.594 467.886 153.024 467.835 153.354 467.801C153.687 467.763 153.929 467.701 154.081 467.614C154.236 467.527 154.314 467.375 154.314 467.159V467.114C154.314 466.553 154.161 466.117 153.854 465.807C153.551 465.496 153.09 465.341 152.473 465.341C151.833 465.341 151.331 465.481 150.967 465.761C150.604 466.042 150.348 466.341 150.2 466.659L148.928 466.205C149.155 465.674 149.458 465.261 149.837 464.966C150.219 464.667 150.636 464.458 151.087 464.341C151.541 464.22 151.988 464.159 152.428 464.159C152.708 464.159 153.03 464.193 153.393 464.261C153.761 464.326 154.115 464.46 154.456 464.665C154.801 464.869 155.087 465.178 155.314 465.591C155.541 466.004 155.655 466.557 155.655 467.25V473H154.314V471.818H154.246C154.155 472.008 154.003 472.21 153.791 472.426C153.579 472.642 153.297 472.826 152.945 472.977C152.592 473.129 152.162 473.205 151.655 473.205ZM151.859 472C152.39 472 152.837 471.896 153.2 471.688C153.568 471.479 153.844 471.21 154.03 470.881C154.219 470.551 154.314 470.205 154.314 469.841V468.614C154.257 468.682 154.132 468.744 153.939 468.801C153.75 468.854 153.53 468.902 153.28 468.943C153.034 468.981 152.793 469.015 152.558 469.045C152.327 469.072 152.14 469.095 151.996 469.114C151.647 469.159 151.321 469.233 151.018 469.335C150.719 469.434 150.477 469.583 150.291 469.784C150.109 469.981 150.018 470.25 150.018 470.591C150.018 471.057 150.191 471.409 150.536 471.648C150.884 471.883 151.325 472 151.859 472ZM161.398 473.182C160.67 473.182 160.028 472.998 159.472 472.631C158.915 472.259 158.479 471.737 158.165 471.062C157.85 470.384 157.693 469.583 157.693 468.659C157.693 467.742 157.85 466.947 158.165 466.273C158.479 465.598 158.917 465.078 159.477 464.71C160.038 464.343 160.686 464.159 161.42 464.159C161.989 464.159 162.438 464.254 162.767 464.443C163.1 464.629 163.354 464.841 163.528 465.08C163.706 465.314 163.845 465.508 163.943 465.659H164.057V461.364H165.398V473H164.102V471.659H163.943C163.845 471.818 163.705 472.019 163.523 472.261C163.341 472.5 163.081 472.714 162.744 472.903C162.407 473.089 161.958 473.182 161.398 473.182ZM161.58 471.977C162.117 471.977 162.572 471.837 162.943 471.557C163.314 471.273 163.597 470.881 163.79 470.381C163.983 469.877 164.08 469.295 164.08 468.636C164.08 467.985 163.985 467.415 163.795 466.926C163.606 466.434 163.326 466.051 162.955 465.778C162.583 465.502 162.125 465.364 161.58 465.364C161.011 465.364 160.538 465.509 160.159 465.801C159.784 466.089 159.502 466.481 159.312 466.977C159.127 467.47 159.034 468.023 159.034 468.636C159.034 469.258 159.129 469.822 159.318 470.33C159.511 470.833 159.795 471.235 160.17 471.534C160.549 471.83 161.019 471.977 161.58 471.977ZM171.585 473.182C170.797 473.182 170.106 472.994 169.511 472.619C168.92 472.244 168.458 471.72 168.125 471.045C167.795 470.371 167.631 469.583 167.631 468.682C167.631 467.773 167.795 466.979 168.125 466.301C168.458 465.623 168.92 465.097 169.511 464.722C170.106 464.347 170.797 464.159 171.585 464.159C172.373 464.159 173.063 464.347 173.653 464.722C174.248 465.097 174.71 465.623 175.04 466.301C175.373 466.979 175.54 467.773 175.54 468.682C175.54 469.583 175.373 470.371 175.04 471.045C174.71 471.72 174.248 472.244 173.653 472.619C173.063 472.994 172.373 473.182 171.585 473.182ZM171.585 471.977C172.184 471.977 172.676 471.824 173.062 471.517C173.449 471.21 173.735 470.807 173.92 470.307C174.106 469.807 174.199 469.265 174.199 468.682C174.199 468.098 174.106 467.555 173.92 467.051C173.735 466.547 173.449 466.14 173.062 465.83C172.676 465.519 172.184 465.364 171.585 465.364C170.987 465.364 170.494 465.519 170.108 465.83C169.722 466.14 169.436 466.547 169.25 467.051C169.064 467.555 168.972 468.098 168.972 468.682C168.972 469.265 169.064 469.807 169.25 470.307C169.436 470.807 169.722 471.21 170.108 471.517C170.494 471.824 170.987 471.977 171.585 471.977ZM183.428 461.364V473H182.087V461.364H183.428ZM188.452 473.205C187.899 473.205 187.397 473.1 186.946 472.892C186.495 472.68 186.137 472.375 185.872 471.977C185.607 471.576 185.474 471.091 185.474 470.523C185.474 470.023 185.573 469.617 185.77 469.307C185.967 468.992 186.23 468.746 186.56 468.568C186.889 468.39 187.253 468.258 187.651 468.17C188.052 468.08 188.455 468.008 188.861 467.955C189.391 467.886 189.821 467.835 190.151 467.801C190.484 467.763 190.726 467.701 190.878 467.614C191.033 467.527 191.111 467.375 191.111 467.159V467.114C191.111 466.553 190.957 466.117 190.651 465.807C190.348 465.496 189.887 465.341 189.27 465.341C188.63 465.341 188.128 465.481 187.764 465.761C187.401 466.042 187.145 466.341 186.997 466.659L185.724 466.205C185.952 465.674 186.255 465.261 186.634 464.966C187.016 464.667 187.433 464.458 187.884 464.341C188.338 464.22 188.785 464.159 189.224 464.159C189.505 464.159 189.827 464.193 190.19 464.261C190.558 464.326 190.912 464.46 191.253 464.665C191.598 464.869 191.884 465.178 192.111 465.591C192.338 466.004 192.452 466.557 192.452 467.25V473H191.111V471.818H191.043C190.952 472.008 190.8 472.21 190.588 472.426C190.376 472.642 190.094 472.826 189.741 472.977C189.389 473.129 188.959 473.205 188.452 473.205ZM188.656 472C189.187 472 189.634 471.896 189.997 471.688C190.365 471.479 190.641 471.21 190.827 470.881C191.016 470.551 191.111 470.205 191.111 469.841V468.614C191.054 468.682 190.929 468.744 190.736 468.801C190.546 468.854 190.327 468.902 190.077 468.943C189.83 468.981 189.59 469.015 189.355 469.045C189.124 469.072 188.937 469.095 188.793 469.114C188.444 469.159 188.118 469.233 187.815 469.335C187.516 469.434 187.274 469.583 187.088 469.784C186.906 469.981 186.815 470.25 186.815 470.591C186.815 471.057 186.988 471.409 187.332 471.648C187.681 471.883 188.122 472 188.656 472ZM202.945 473.182C202.126 473.182 201.422 472.989 200.831 472.602C200.24 472.216 199.786 471.684 199.467 471.006C199.149 470.328 198.99 469.553 198.99 468.682C198.99 467.795 199.153 467.013 199.479 466.335C199.808 465.653 200.267 465.121 200.854 464.739C201.445 464.352 202.134 464.159 202.922 464.159C203.536 464.159 204.089 464.273 204.581 464.5C205.073 464.727 205.477 465.045 205.791 465.455C206.106 465.864 206.301 466.341 206.376 466.886H205.036C204.933 466.489 204.706 466.136 204.354 465.83C204.005 465.519 203.536 465.364 202.945 465.364C202.422 465.364 201.964 465.5 201.57 465.773C201.179 466.042 200.875 466.422 200.655 466.915C200.439 467.403 200.331 467.977 200.331 468.636C200.331 469.311 200.437 469.898 200.649 470.398C200.865 470.898 201.168 471.286 201.558 471.562C201.952 471.839 202.414 471.977 202.945 471.977C203.293 471.977 203.609 471.917 203.893 471.795C204.178 471.674 204.418 471.5 204.615 471.273C204.812 471.045 204.952 470.773 205.036 470.455H206.376C206.301 470.97 206.113 471.434 205.814 471.847C205.518 472.256 205.126 472.581 204.638 472.824C204.153 473.062 203.589 473.182 202.945 473.182ZM211.882 473.182C211.094 473.182 210.403 472.994 209.808 472.619C209.217 472.244 208.755 471.72 208.422 471.045C208.092 470.371 207.928 469.583 207.928 468.682C207.928 467.773 208.092 466.979 208.422 466.301C208.755 465.623 209.217 465.097 209.808 464.722C210.403 464.347 211.094 464.159 211.882 464.159C212.67 464.159 213.359 464.347 213.95 464.722C214.545 465.097 215.007 465.623 215.337 466.301C215.67 466.979 215.837 467.773 215.837 468.682C215.837 469.583 215.67 470.371 215.337 471.045C215.007 471.72 214.545 472.244 213.95 472.619C213.359 472.994 212.67 473.182 211.882 473.182ZM211.882 471.977C212.481 471.977 212.973 471.824 213.359 471.517C213.746 471.21 214.032 470.807 214.217 470.307C214.403 469.807 214.496 469.265 214.496 468.682C214.496 468.098 214.403 467.555 214.217 467.051C214.032 466.547 213.746 466.14 213.359 465.83C212.973 465.519 212.481 465.364 211.882 465.364C211.284 465.364 210.791 465.519 210.405 465.83C210.018 466.14 209.732 466.547 209.547 467.051C209.361 467.555 209.268 468.098 209.268 468.682C209.268 469.265 209.361 469.807 209.547 470.307C209.732 470.807 210.018 471.21 210.405 471.517C210.791 471.824 211.284 471.977 211.882 471.977ZM219.224 467.75V473H217.884V464.273H219.179V465.636H219.293C219.497 465.193 219.808 464.837 220.224 464.568C220.641 464.295 221.179 464.159 221.838 464.159C222.429 464.159 222.946 464.28 223.389 464.523C223.832 464.761 224.177 465.125 224.423 465.614C224.67 466.098 224.793 466.712 224.793 467.455V473H223.452V467.545C223.452 466.86 223.274 466.326 222.918 465.943C222.562 465.557 222.073 465.364 221.452 465.364C221.024 465.364 220.641 465.456 220.304 465.642C219.971 465.828 219.707 466.098 219.514 466.455C219.321 466.811 219.224 467.242 219.224 467.75ZM231.038 464.273V465.409H226.516V464.273H231.038ZM227.834 462.182H229.175V470.5C229.175 470.879 229.23 471.163 229.339 471.352C229.453 471.538 229.597 471.663 229.771 471.727C229.949 471.788 230.137 471.818 230.334 471.818C230.482 471.818 230.603 471.811 230.697 471.795C230.792 471.777 230.868 471.761 230.925 471.75L231.197 472.955C231.107 472.989 230.98 473.023 230.817 473.057C230.654 473.095 230.447 473.114 230.197 473.114C229.819 473.114 229.447 473.032 229.084 472.869C228.724 472.706 228.425 472.458 228.186 472.125C227.951 471.792 227.834 471.371 227.834 470.864V462.182ZM233.055 473V464.273H234.351V465.591H234.442C234.601 465.159 234.889 464.809 235.305 464.54C235.722 464.271 236.192 464.136 236.714 464.136C236.813 464.136 236.936 464.138 237.084 464.142C237.232 464.146 237.343 464.152 237.419 464.159V465.523C237.374 465.511 237.269 465.494 237.107 465.472C236.947 465.445 236.779 465.432 236.601 465.432C236.177 465.432 235.798 465.521 235.464 465.699C235.135 465.873 234.874 466.116 234.68 466.426C234.491 466.733 234.396 467.083 234.396 467.477V473H233.055ZM241.577 473.205C241.024 473.205 240.522 473.1 240.071 472.892C239.62 472.68 239.262 472.375 238.997 471.977C238.732 471.576 238.599 471.091 238.599 470.523C238.599 470.023 238.698 469.617 238.895 469.307C239.092 468.992 239.355 468.746 239.685 468.568C240.014 468.39 240.378 468.258 240.776 468.17C241.177 468.08 241.58 468.008 241.986 467.955C242.516 467.886 242.946 467.835 243.276 467.801C243.609 467.763 243.851 467.701 244.003 467.614C244.158 467.527 244.236 467.375 244.236 467.159V467.114C244.236 466.553 244.082 466.117 243.776 465.807C243.473 465.496 243.012 465.341 242.395 465.341C241.755 465.341 241.253 465.481 240.889 465.761C240.526 466.042 240.27 466.341 240.122 466.659L238.849 466.205C239.077 465.674 239.38 465.261 239.759 464.966C240.141 464.667 240.558 464.458 241.009 464.341C241.463 464.22 241.91 464.159 242.349 464.159C242.63 464.159 242.952 464.193 243.315 464.261C243.683 464.326 244.037 464.46 244.378 464.665C244.723 464.869 245.009 465.178 245.236 465.591C245.463 466.004 245.577 466.557 245.577 467.25V473H244.236V471.818H244.168C244.077 472.008 243.925 472.21 243.713 472.426C243.501 472.642 243.219 472.826 242.866 472.977C242.514 473.129 242.084 473.205 241.577 473.205ZM241.781 472C242.312 472 242.759 471.896 243.122 471.688C243.49 471.479 243.766 471.21 243.952 470.881C244.141 470.551 244.236 470.205 244.236 469.841V468.614C244.179 468.682 244.054 468.744 243.861 468.801C243.671 468.854 243.452 468.902 243.202 468.943C242.955 468.981 242.715 469.015 242.48 469.045C242.249 469.072 242.062 469.095 241.918 469.114C241.569 469.159 241.243 469.233 240.94 469.335C240.641 469.434 240.399 469.583 240.213 469.784C240.031 469.981 239.94 470.25 239.94 470.591C239.94 471.057 240.113 471.409 240.457 471.648C240.806 471.883 241.247 472 241.781 472ZM254.206 466.227L253.001 466.568C252.926 466.367 252.814 466.172 252.666 465.983C252.522 465.79 252.325 465.631 252.075 465.506C251.825 465.381 251.505 465.318 251.115 465.318C250.581 465.318 250.136 465.441 249.78 465.688C249.428 465.93 249.251 466.239 249.251 466.614C249.251 466.947 249.373 467.21 249.615 467.403C249.857 467.597 250.236 467.758 250.751 467.886L252.047 468.205C252.827 468.394 253.409 468.684 253.791 469.074C254.174 469.46 254.365 469.958 254.365 470.568C254.365 471.068 254.221 471.515 253.933 471.909C253.649 472.303 253.251 472.614 252.74 472.841C252.229 473.068 251.634 473.182 250.956 473.182C250.066 473.182 249.329 472.989 248.746 472.602C248.162 472.216 247.793 471.652 247.638 470.909L248.911 470.591C249.032 471.061 249.261 471.413 249.598 471.648C249.939 471.883 250.384 472 250.933 472C251.558 472 252.054 471.867 252.422 471.602C252.793 471.333 252.979 471.011 252.979 470.636C252.979 470.333 252.873 470.08 252.661 469.875C252.448 469.667 252.123 469.511 251.683 469.409L250.229 469.068C249.429 468.879 248.842 468.585 248.467 468.188C248.096 467.786 247.911 467.284 247.911 466.682C247.911 466.189 248.049 465.754 248.325 465.375C248.606 464.996 248.986 464.699 249.467 464.483C249.952 464.267 250.501 464.159 251.115 464.159C251.979 464.159 252.657 464.348 253.149 464.727C253.645 465.106 253.998 465.606 254.206 466.227ZM260.043 473.182C259.202 473.182 258.476 472.996 257.866 472.625C257.26 472.25 256.793 471.727 256.463 471.057C256.137 470.383 255.974 469.598 255.974 468.705C255.974 467.811 256.137 467.023 256.463 466.341C256.793 465.655 257.251 465.121 257.838 464.739C258.429 464.352 259.118 464.159 259.906 464.159C260.361 464.159 260.81 464.235 261.253 464.386C261.696 464.538 262.099 464.784 262.463 465.125C262.827 465.462 263.116 465.909 263.332 466.466C263.548 467.023 263.656 467.708 263.656 468.523V469.091H256.929V467.932H262.293C262.293 467.439 262.194 467 261.997 466.614C261.804 466.227 261.527 465.922 261.168 465.699C260.812 465.475 260.391 465.364 259.906 465.364C259.372 465.364 258.91 465.496 258.52 465.761C258.134 466.023 257.836 466.364 257.628 466.784C257.42 467.205 257.315 467.655 257.315 468.136V468.909C257.315 469.568 257.429 470.127 257.656 470.585C257.887 471.04 258.207 471.386 258.616 471.625C259.026 471.86 259.501 471.977 260.043 471.977C260.395 471.977 260.713 471.928 260.997 471.83C261.285 471.727 261.533 471.576 261.741 471.375C261.95 471.17 262.111 470.917 262.224 470.614L263.52 470.977C263.384 471.417 263.154 471.803 262.832 472.136C262.51 472.466 262.113 472.723 261.639 472.909C261.166 473.091 260.634 473.182 260.043 473.182ZM267.037 467.75V473H265.696V464.273H266.991V465.636H267.105C267.31 465.193 267.62 464.837 268.037 464.568C268.454 464.295 268.991 464.159 269.651 464.159C270.241 464.159 270.759 464.28 271.202 464.523C271.645 464.761 271.99 465.125 272.236 465.614C272.482 466.098 272.605 466.712 272.605 467.455V473H271.264V467.545C271.264 466.86 271.086 466.326 270.73 465.943C270.374 465.557 269.885 465.364 269.264 465.364C268.836 465.364 268.454 465.456 268.116 465.642C267.783 465.828 267.52 466.098 267.327 466.455C267.134 466.811 267.037 467.242 267.037 467.75ZM267.401 463.227L266.355 463.182C266.355 462.602 266.52 462.129 266.849 461.761C267.183 461.39 267.594 461.205 268.082 461.205C268.298 461.205 268.49 461.242 268.656 461.318C268.823 461.39 268.982 461.473 269.134 461.568C269.285 461.663 269.44 461.748 269.599 461.824C269.762 461.896 269.946 461.932 270.151 461.932C270.366 461.932 270.548 461.848 270.696 461.682C270.848 461.511 270.923 461.307 270.923 461.068L271.946 461.159C271.946 461.75 271.779 462.22 271.446 462.568C271.116 462.917 270.707 463.091 270.219 463.091C269.957 463.091 269.741 463.055 269.571 462.983C269.401 462.907 269.249 462.822 269.116 462.727C268.984 462.633 268.844 462.549 268.696 462.477C268.548 462.402 268.366 462.364 268.151 462.364C267.935 462.364 267.755 462.449 267.611 462.619C267.471 462.786 267.401 462.989 267.401 463.227ZM277.624 473.205C277.071 473.205 276.569 473.1 276.118 472.892C275.667 472.68 275.309 472.375 275.044 471.977C274.779 471.576 274.646 471.091 274.646 470.523C274.646 470.023 274.745 469.617 274.942 469.307C275.139 468.992 275.402 468.746 275.732 468.568C276.061 468.39 276.425 468.258 276.822 468.17C277.224 468.08 277.627 468.008 278.033 467.955C278.563 467.886 278.993 467.835 279.322 467.801C279.656 467.763 279.898 467.701 280.05 467.614C280.205 467.527 280.283 467.375 280.283 467.159V467.114C280.283 466.553 280.129 466.117 279.822 465.807C279.519 465.496 279.059 465.341 278.442 465.341C277.802 465.341 277.3 465.481 276.936 465.761C276.572 466.042 276.317 466.341 276.169 466.659L274.896 466.205C275.124 465.674 275.427 465.261 275.805 464.966C276.188 464.667 276.605 464.458 277.055 464.341C277.51 464.22 277.957 464.159 278.396 464.159C278.677 464.159 278.999 464.193 279.362 464.261C279.73 464.326 280.084 464.46 280.425 464.665C280.769 464.869 281.055 465.178 281.283 465.591C281.51 466.004 281.624 466.557 281.624 467.25V473H280.283V471.818H280.214C280.124 472.008 279.972 472.21 279.76 472.426C279.548 472.642 279.266 472.826 278.913 472.977C278.561 473.129 278.131 473.205 277.624 473.205ZM277.828 472C278.358 472 278.805 471.896 279.169 471.688C279.536 471.479 279.813 471.21 279.999 470.881C280.188 470.551 280.283 470.205 280.283 469.841V468.614C280.226 468.682 280.101 468.744 279.908 468.801C279.718 468.854 279.499 468.902 279.249 468.943C279.002 468.981 278.762 469.015 278.527 469.045C278.296 469.072 278.108 469.095 277.964 469.114C277.616 469.159 277.29 469.233 276.987 469.335C276.688 469.434 276.446 469.583 276.26 469.784C276.078 469.981 275.987 470.25 275.987 470.591C275.987 471.057 276.16 471.409 276.504 471.648C276.853 471.883 277.294 472 277.828 472ZM285.821 469.727V469.659C285.829 468.936 285.904 468.36 286.048 467.932C286.192 467.504 286.397 467.157 286.662 466.892C286.927 466.627 287.245 466.383 287.616 466.159C287.84 466.023 288.041 465.862 288.219 465.676C288.397 465.487 288.537 465.269 288.639 465.023C288.745 464.777 288.798 464.504 288.798 464.205C288.798 463.833 288.711 463.511 288.537 463.239C288.363 462.966 288.13 462.756 287.838 462.608C287.546 462.46 287.223 462.386 286.866 462.386C286.556 462.386 286.257 462.451 285.969 462.58C285.681 462.708 285.44 462.911 285.247 463.188C285.054 463.464 284.942 463.826 284.912 464.273H283.48C283.51 463.629 283.677 463.078 283.98 462.619C284.287 462.161 284.69 461.811 285.19 461.568C285.694 461.326 286.253 461.205 286.866 461.205C287.533 461.205 288.113 461.337 288.605 461.602C289.101 461.867 289.484 462.231 289.753 462.693C290.026 463.155 290.162 463.682 290.162 464.273C290.162 464.689 290.098 465.066 289.969 465.403C289.844 465.741 289.662 466.042 289.423 466.307C289.188 466.572 288.904 466.807 288.571 467.011C288.238 467.22 287.971 467.439 287.77 467.67C287.569 467.898 287.423 468.169 287.332 468.483C287.241 468.797 287.192 469.189 287.185 469.659V469.727H285.821ZM286.548 473.091C286.268 473.091 286.027 472.991 285.827 472.79C285.626 472.589 285.526 472.348 285.526 472.068C285.526 471.788 285.626 471.547 285.827 471.347C286.027 471.146 286.268 471.045 286.548 471.045C286.829 471.045 287.069 471.146 287.27 471.347C287.471 471.547 287.571 471.788 287.571 472.068C287.571 472.254 287.524 472.424 287.429 472.58C287.338 472.735 287.215 472.86 287.06 472.955C286.908 473.045 286.738 473.091 286.548 473.091Z" fill="#EA4335"/>
<path d="M103.753 663.177C103.753 663.513 103.725 663.828 103.669 664.122C103.618 664.416 103.517 664.696 103.368 664.962C103.242 665.214 103.093 665.419 102.92 665.578C102.747 665.732 102.561 665.886 102.36 666.04C102.159 666.189 101.947 666.383 101.723 666.621C101.541 666.826 101.417 667.034 101.352 667.244C101.287 667.449 101.254 667.676 101.254 667.923C101.254 668.1 101.275 668.264 101.317 668.413C101.359 668.567 101.429 668.702 101.527 668.819C101.676 669.006 101.865 669.136 102.094 669.211C102.323 669.29 102.561 669.33 102.808 669.33C103.037 669.33 103.251 669.3 103.452 669.239C103.653 669.178 103.818 669.085 103.949 668.959C104.098 668.838 104.206 668.686 104.271 668.504C104.341 668.327 104.374 668.133 104.369 667.923H105.909C105.872 668.357 105.76 668.765 105.573 669.148C105.386 669.535 105.134 669.848 104.817 670.086C104.546 670.296 104.238 670.455 103.893 670.562C103.548 670.669 103.202 670.723 102.857 670.723C102.362 670.723 101.893 670.646 101.45 670.492C101.011 670.338 100.645 670.088 100.351 669.743C100.141 669.5 99.98 669.223 99.868 668.91C99.756 668.597 99.7 668.278 99.7 667.951C99.7 667.503 99.7933 667.09 99.98 666.712C100.171 666.334 100.414 665.991 100.708 665.683C100.862 665.52 101.016 665.373 101.17 665.242C101.329 665.107 101.476 664.976 101.611 664.85C101.751 664.724 101.863 664.586 101.947 664.437C102.078 664.218 102.152 664.024 102.171 663.856C102.19 663.683 102.199 663.457 102.199 663.177H103.753ZM103.739 660.44V662.134H102.199V660.44H103.739ZM107.595 668V657.92H109.079L114.042 665.41V657.92H115.526V668H114.042L109.079 660.503V668H107.595ZM120.763 668.21C120.007 668.21 119.351 668.04 118.796 667.699C118.241 667.358 117.811 666.889 117.508 666.292C117.209 665.69 117.06 664.997 117.06 664.213C117.06 663.424 117.214 662.731 117.522 662.134C117.83 661.532 118.262 661.065 118.817 660.734C119.372 660.398 120.021 660.23 120.763 660.23C121.519 660.23 122.175 660.4 122.73 660.741C123.285 661.082 123.715 661.551 124.018 662.148C124.321 662.745 124.473 663.434 124.473 664.213C124.473 665.002 124.319 665.697 124.011 666.299C123.708 666.896 123.278 667.365 122.723 667.706C122.168 668.042 121.514 668.21 120.763 668.21ZM120.763 666.831C121.486 666.831 122.025 666.588 122.38 666.103C122.739 665.613 122.919 664.983 122.919 664.213C122.919 663.424 122.737 662.794 122.373 662.323C122.014 661.847 121.477 661.609 120.763 661.609C120.273 661.609 119.869 661.721 119.552 661.945C119.235 662.164 118.999 662.47 118.845 662.862C118.691 663.249 118.614 663.7 118.614 664.213C118.614 665.006 118.796 665.641 119.16 666.117C119.524 666.593 120.058 666.831 120.763 666.831ZM133.14 668C132.664 668.093 132.197 668.133 131.74 668.119C131.283 668.105 130.874 668.016 130.515 667.853C130.156 667.69 129.885 667.433 129.703 667.083C129.54 666.77 129.451 666.453 129.437 666.131C129.428 665.804 129.423 665.436 129.423 665.025V658.34H130.893V664.955C130.893 665.258 130.895 665.522 130.9 665.746C130.909 665.97 130.958 666.159 131.047 666.313C131.215 666.602 131.481 666.768 131.845 666.81C132.214 666.847 132.645 666.831 133.14 666.761V668ZM127.974 661.616V660.44H133.14V661.616H127.974ZM134.874 659.201V657.78H136.337V659.201H134.874ZM134.874 668V660.44H136.337V668H134.874ZM141.792 668.21C141.041 668.21 140.38 668.047 139.811 667.72C139.246 667.389 138.805 666.929 138.488 666.341C138.175 665.748 138.019 665.062 138.019 664.283C138.019 663.457 138.173 662.741 138.481 662.134C138.794 661.527 139.228 661.058 139.783 660.727C140.338 660.396 140.985 660.23 141.722 660.23C142.492 660.23 143.148 660.41 143.689 660.769C144.23 661.124 144.634 661.63 144.9 662.288C145.171 662.946 145.278 663.728 145.222 664.633H143.759V664.101C143.75 663.224 143.582 662.575 143.255 662.155C142.933 661.735 142.441 661.525 141.778 661.525C141.045 661.525 140.495 661.756 140.126 662.218C139.757 662.68 139.573 663.347 139.573 664.22C139.573 665.051 139.757 665.695 140.126 666.152C140.495 666.605 141.027 666.831 141.722 666.831C142.179 666.831 142.574 666.728 142.905 666.523C143.241 666.313 143.502 666.014 143.689 665.627L145.124 666.082C144.83 666.759 144.384 667.284 143.787 667.657C143.19 668.026 142.525 668.21 141.792 668.21ZM139.097 664.633V663.492H144.494V664.633H139.097ZM151.893 668V664.283C151.893 663.989 151.868 663.688 151.816 663.38C151.77 663.067 151.676 662.778 151.536 662.512C151.401 662.246 151.207 662.031 150.955 661.868C150.708 661.705 150.384 661.623 149.982 661.623C149.721 661.623 149.474 661.667 149.24 661.756C149.007 661.84 148.802 661.978 148.624 662.169C148.452 662.36 148.314 662.612 148.211 662.925C148.113 663.238 148.064 663.618 148.064 664.066L147.154 663.723C147.154 663.037 147.283 662.433 147.539 661.91C147.796 661.383 148.165 660.972 148.645 660.678C149.126 660.384 149.707 660.237 150.388 660.237C150.911 660.237 151.35 660.321 151.704 660.489C152.059 660.657 152.346 660.879 152.565 661.154C152.789 661.425 152.96 661.721 153.076 662.043C153.193 662.365 153.272 662.68 153.314 662.988C153.356 663.296 153.377 663.567 153.377 663.8V668H151.893ZM146.58 668V660.44H147.889V662.624H148.064V668H146.58ZM158.458 668.21C157.707 668.21 157.046 668.047 156.477 667.72C155.912 667.389 155.471 666.929 155.154 666.341C154.841 665.748 154.685 665.062 154.685 664.283C154.685 663.457 154.839 662.741 155.147 662.134C155.46 661.527 155.894 661.058 156.449 660.727C157.004 660.396 157.651 660.23 158.388 660.23C159.158 660.23 159.814 660.41 160.355 660.769C160.896 661.124 161.3 661.63 161.566 662.288C161.837 662.946 161.944 663.728 161.888 664.633H160.425V664.101C160.416 663.224 160.248 662.575 159.921 662.155C159.599 661.735 159.107 661.525 158.444 661.525C157.711 661.525 157.161 661.756 156.792 662.218C156.423 662.68 156.239 663.347 156.239 664.22C156.239 665.051 156.423 665.695 156.792 666.152C157.161 666.605 157.693 666.831 158.388 666.831C158.845 666.831 159.24 666.728 159.571 666.523C159.907 666.313 160.168 666.014 160.355 665.627L161.79 666.082C161.496 666.759 161.05 667.284 160.453 667.657C159.856 668.026 159.191 668.21 158.458 668.21ZM155.763 664.633V663.492H161.16V664.633H155.763ZM166.35 668.203C165.43 668.203 164.681 668 164.103 667.594C163.524 667.188 163.169 666.616 163.039 665.879L164.537 665.648C164.63 666.04 164.845 666.35 165.181 666.579C165.521 666.803 165.944 666.915 166.448 666.915C166.905 666.915 167.262 666.822 167.519 666.635C167.78 666.448 167.911 666.192 167.911 665.865C167.911 665.674 167.864 665.52 167.771 665.403C167.682 665.282 167.493 665.167 167.204 665.06C166.914 664.953 166.473 664.82 165.881 664.661C165.232 664.493 164.716 664.313 164.334 664.122C163.956 663.926 163.685 663.7 163.522 663.443C163.363 663.182 163.284 662.867 163.284 662.498C163.284 662.041 163.405 661.642 163.648 661.301C163.89 660.96 164.231 660.697 164.67 660.51C165.113 660.323 165.631 660.23 166.224 660.23C166.802 660.23 167.318 660.321 167.771 660.503C168.223 660.685 168.59 660.944 168.87 661.28C169.15 661.611 169.318 662.001 169.374 662.449L167.876 662.722C167.824 662.358 167.654 662.071 167.365 661.861C167.075 661.651 166.7 661.537 166.238 661.518C165.794 661.499 165.435 661.574 165.16 661.742C164.884 661.905 164.747 662.132 164.747 662.421C164.747 662.589 164.798 662.731 164.901 662.848C165.008 662.965 165.213 663.077 165.517 663.184C165.82 663.291 166.268 663.42 166.861 663.569C167.495 663.732 167.999 663.914 168.373 664.115C168.746 664.311 169.012 664.547 169.171 664.822C169.334 665.093 169.416 665.422 169.416 665.809C169.416 666.556 169.143 667.141 168.597 667.566C168.055 667.991 167.306 668.203 166.35 668.203ZM176.616 668.203C176.093 668.203 175.655 668.119 175.3 667.951C174.945 667.783 174.656 667.564 174.432 667.293C174.213 667.018 174.045 666.719 173.928 666.397C173.811 666.075 173.732 665.76 173.69 665.452C173.648 665.144 173.627 664.873 173.627 664.64V660.44H175.111V664.157C175.111 664.451 175.134 664.754 175.181 665.067C175.232 665.375 175.326 665.662 175.461 665.928C175.601 666.194 175.795 666.409 176.042 666.572C176.294 666.735 176.621 666.817 177.022 666.817C177.283 666.817 177.531 666.775 177.764 666.691C177.997 666.602 178.2 666.462 178.373 666.271C178.55 666.08 178.688 665.828 178.786 665.515C178.889 665.202 178.94 664.822 178.94 664.374L179.85 664.717C179.85 665.403 179.722 666.01 179.465 666.537C179.208 667.06 178.84 667.468 178.359 667.762C177.878 668.056 177.297 668.203 176.616 668.203ZM179.115 668V665.816H178.94V660.44H180.417V668H179.115ZM187.686 668V664.283C187.686 663.989 187.661 663.688 187.609 663.38C187.563 663.067 187.469 662.778 187.329 662.512C187.194 662.246 187 662.031 186.748 661.868C186.501 661.705 186.177 661.623 185.775 661.623C185.514 661.623 185.267 661.667 185.033 661.756C184.8 661.84 184.595 661.978 184.417 662.169C184.245 662.36 184.107 662.612 184.004 662.925C183.906 663.238 183.857 663.618 183.857 664.066L182.947 663.723C182.947 663.037 183.076 662.433 183.332 661.91C183.589 661.383 183.958 660.972 184.438 660.678C184.919 660.384 185.5 660.237 186.181 660.237C186.704 660.237 187.143 660.321 187.497 660.489C187.852 660.657 188.139 660.879 188.358 661.154C188.582 661.425 188.753 661.721 188.869 662.043C188.986 662.365 189.065 662.68 189.107 662.988C189.149 663.296 189.17 663.567 189.17 663.8V668H187.686ZM182.373 668V660.44H183.682V662.624H183.857V668H182.373ZM193.129 668.21C192.569 668.21 192.1 668.107 191.722 667.902C191.344 667.692 191.057 667.417 190.861 667.076C190.669 666.731 190.574 666.353 190.574 665.942C190.574 665.559 190.641 665.223 190.777 664.934C190.912 664.645 191.113 664.4 191.379 664.199C191.645 663.994 191.971 663.828 192.359 663.702C192.695 663.604 193.075 663.518 193.5 663.443C193.924 663.368 194.37 663.298 194.837 663.233C195.308 663.168 195.775 663.102 196.237 663.037L195.705 663.331C195.714 662.738 195.588 662.3 195.327 662.015C195.07 661.726 194.627 661.581 193.997 661.581C193.6 661.581 193.236 661.674 192.905 661.861C192.573 662.043 192.342 662.346 192.212 662.771L190.847 662.351C191.033 661.702 191.388 661.187 191.911 660.804C192.438 660.421 193.138 660.23 194.011 660.23C194.687 660.23 195.275 660.347 195.775 660.58C196.279 660.809 196.647 661.173 196.881 661.672C197.002 661.919 197.077 662.181 197.105 662.456C197.133 662.731 197.147 663.028 197.147 663.345V668H195.852V666.271L196.104 666.495C195.791 667.074 195.392 667.505 194.907 667.79C194.426 668.07 193.833 668.21 193.129 668.21ZM193.388 667.013C193.803 667.013 194.16 666.941 194.459 666.796C194.757 666.647 194.998 666.458 195.18 666.229C195.362 666 195.481 665.762 195.537 665.515C195.616 665.291 195.66 665.039 195.67 664.759C195.684 664.479 195.691 664.255 195.691 664.087L196.167 664.262C195.705 664.332 195.285 664.395 194.907 664.451C194.529 664.507 194.186 664.563 193.878 664.619C193.574 664.67 193.304 664.733 193.066 664.808C192.865 664.878 192.685 664.962 192.527 665.06C192.373 665.158 192.249 665.277 192.156 665.417C192.067 665.557 192.023 665.727 192.023 665.928C192.023 666.124 192.072 666.306 192.17 666.474C192.268 666.637 192.417 666.768 192.618 666.866C192.818 666.964 193.075 667.013 193.388 667.013ZM205.001 668.21C204.226 668.21 203.568 668.037 203.027 667.692C202.486 667.347 202.07 666.873 201.781 666.271C201.496 665.669 201.352 664.985 201.347 664.22C201.352 663.441 201.501 662.752 201.795 662.155C202.089 661.553 202.509 661.082 203.055 660.741C203.601 660.4 204.257 660.23 205.022 660.23C205.848 660.23 206.553 660.435 207.136 660.846C207.724 661.257 208.111 661.819 208.298 662.533L206.842 662.953C206.697 662.528 206.459 662.199 206.128 661.966C205.801 661.728 205.426 661.609 205.001 661.609C204.52 661.609 204.126 661.723 203.818 661.952C203.51 662.176 203.281 662.484 203.132 662.876C202.983 663.268 202.906 663.716 202.901 664.22C202.906 664.999 203.083 665.629 203.433 666.11C203.788 666.591 204.31 666.831 205.001 666.831C205.472 666.831 205.853 666.724 206.142 666.509C206.436 666.29 206.66 665.977 206.814 665.571L208.298 665.921C208.051 666.658 207.642 667.225 207.073 667.622C206.504 668.014 205.813 668.21 205.001 668.21ZM212.573 668.203C212.05 668.203 211.612 668.119 211.257 667.951C210.902 667.783 210.613 667.564 210.389 667.293C210.17 667.018 210.002 666.719 209.885 666.397C209.768 666.075 209.689 665.76 209.647 665.452C209.605 665.144 209.584 664.873 209.584 664.64V660.44H211.068V664.157C211.068 664.451 211.091 664.754 211.138 665.067C211.189 665.375 211.283 665.662 211.418 665.928C211.558 666.194 211.752 666.409 211.999 666.572C212.251 666.735 212.578 666.817 212.979 666.817C213.24 666.817 213.488 666.775 213.721 666.691C213.954 666.602 214.157 666.462 214.33 666.271C214.507 666.08 214.645 665.828 214.743 665.515C214.846 665.202 214.897 664.822 214.897 664.374L215.807 664.717C215.807 665.403 215.679 666.01 215.422 666.537C215.165 667.06 214.797 667.468 214.316 667.762C213.835 668.056 213.254 668.203 212.573 668.203ZM215.072 668V665.816H214.897V660.44H216.374V668H215.072ZM221.69 668.21C220.939 668.21 220.279 668.047 219.709 667.72C219.145 667.389 218.704 666.929 218.386 666.341C218.074 665.748 217.917 665.062 217.917 664.283C217.917 663.457 218.071 662.741 218.379 662.134C218.692 661.527 219.126 661.058 219.681 660.727C220.237 660.396 220.883 660.23 221.62 660.23C222.39 660.23 223.046 660.41 223.587 660.769C224.129 661.124 224.532 661.63 224.798 662.288C225.069 662.946 225.176 663.728 225.12 664.633H223.657V664.101C223.648 663.224 223.48 662.575 223.153 662.155C222.831 661.735 222.339 661.525 221.676 661.525C220.944 661.525 220.393 661.756 220.024 662.218C219.656 662.68 219.471 663.347 219.471 664.22C219.471 665.051 219.656 665.695 220.024 666.152C220.393 666.605 220.925 666.831 221.62 666.831C222.078 666.831 222.472 666.728 222.803 666.523C223.139 666.313 223.401 666.014 223.587 665.627L225.022 666.082C224.728 666.759 224.283 667.284 223.685 667.657C223.088 668.026 222.423 668.21 221.69 668.21ZM218.995 664.633V663.492H224.392V664.633H218.995ZM231.792 668V664.283C231.792 663.989 231.766 663.688 231.715 663.38C231.668 663.067 231.575 662.778 231.435 662.512C231.3 662.246 231.106 662.031 230.854 661.868C230.607 661.705 230.282 661.623 229.881 661.623C229.62 661.623 229.372 661.667 229.139 661.756C228.906 661.84 228.7 661.978 228.523 662.169C228.35 662.36 228.213 662.612 228.11 662.925C228.012 663.238 227.963 663.618 227.963 664.066L227.053 663.723C227.053 663.037 227.181 662.433 227.438 661.91C227.695 661.383 228.063 660.972 228.544 660.678C229.025 660.384 229.606 660.237 230.287 660.237C230.81 660.237 231.248 660.321 231.603 660.489C231.958 660.657 232.245 660.879 232.464 661.154C232.688 661.425 232.858 661.721 232.975 662.043C233.092 662.365 233.171 662.68 233.213 662.988C233.255 663.296 233.276 663.567 233.276 663.8V668H231.792ZM226.479 668V660.44H227.788V662.624H227.963V668H226.479ZM239.425 668C238.949 668.093 238.482 668.133 238.025 668.119C237.568 668.105 237.159 668.016 236.8 667.853C236.441 667.69 236.17 667.433 235.988 667.083C235.825 666.77 235.736 666.453 235.722 666.131C235.713 665.804 235.708 665.436 235.708 665.025V658.34H237.178V664.955C237.178 665.258 237.18 665.522 237.185 665.746C237.194 665.97 237.243 666.159 237.332 666.313C237.5 666.602 237.766 666.768 238.13 666.81C238.499 666.847 238.93 666.831 239.425 666.761V668ZM234.259 661.616V660.44H239.425V661.616H234.259ZM243.154 668.21C242.594 668.21 242.125 668.107 241.747 667.902C241.369 667.692 241.082 667.417 240.886 667.076C240.695 666.731 240.599 666.353 240.599 665.942C240.599 665.559 240.667 665.223 240.802 664.934C240.937 664.645 241.138 664.4 241.404 664.199C241.67 663.994 241.997 663.828 242.384 663.702C242.72 663.604 243.1 663.518 243.525 663.443C243.95 663.368 244.395 663.298 244.862 663.233C245.333 663.168 245.8 663.102 246.262 663.037L245.73 663.331C245.739 662.738 245.613 662.3 245.352 662.015C245.095 661.726 244.652 661.581 244.022 661.581C243.625 661.581 243.261 661.674 242.93 661.861C242.599 662.043 242.368 662.346 242.237 662.771L240.872 662.351C241.059 661.702 241.413 661.187 241.936 660.804C242.463 660.421 243.163 660.23 244.036 660.23C244.713 660.23 245.301 660.347 245.8 660.58C246.304 660.809 246.673 661.173 246.906 661.672C247.027 661.919 247.102 662.181 247.13 662.456C247.158 662.731 247.172 663.028 247.172 663.345V668H245.877V666.271L246.129 666.495C245.816 667.074 245.417 667.505 244.932 667.79C244.451 668.07 243.859 668.21 243.154 668.21ZM243.413 667.013C243.828 667.013 244.185 666.941 244.484 666.796C244.783 666.647 245.023 666.458 245.205 666.229C245.387 666 245.506 665.762 245.562 665.515C245.641 665.291 245.686 665.039 245.695 664.759C245.709 664.479 245.716 664.255 245.716 664.087L246.192 664.262C245.73 664.332 245.31 664.395 244.932 664.451C244.554 664.507 244.211 664.563 243.903 664.619C243.6 664.67 243.329 664.733 243.091 664.808C242.89 664.878 242.711 664.962 242.552 665.06C242.398 665.158 242.274 665.277 242.181 665.417C242.092 665.557 242.048 665.727 242.048 665.928C242.048 666.124 242.097 666.306 242.195 666.474C242.293 666.637 242.442 666.768 242.643 666.866C242.844 666.964 243.1 667.013 243.413 667.013ZM250.866 665.263C250.866 664.927 250.891 664.612 250.943 664.318C250.999 664.024 251.101 663.744 251.251 663.478C251.377 663.226 251.524 663.023 251.692 662.869C251.864 662.71 252.051 662.556 252.252 662.407C252.457 662.253 252.672 662.057 252.896 661.819C253.082 661.614 253.206 661.406 253.267 661.196C253.332 660.986 253.365 660.76 253.365 660.517C253.365 660.34 253.344 660.174 253.302 660.02C253.26 659.866 253.19 659.733 253.092 659.621C252.942 659.434 252.753 659.304 252.525 659.229C252.296 659.15 252.058 659.11 251.811 659.11C251.587 659.11 251.372 659.14 251.167 659.201C250.966 659.262 250.798 659.355 250.663 659.481C250.518 659.602 250.411 659.754 250.341 659.936C250.275 660.113 250.245 660.307 250.25 660.517H248.71C248.747 660.078 248.859 659.668 249.046 659.285C249.232 658.902 249.484 658.592 249.802 658.354C250.072 658.139 250.38 657.981 250.726 657.878C251.071 657.771 251.416 657.717 251.762 657.717C252.256 657.717 252.723 657.794 253.162 657.948C253.605 658.102 253.974 658.352 254.268 658.697C254.482 658.94 254.643 659.217 254.751 659.53C254.863 659.838 254.919 660.158 254.919 660.489C254.919 660.932 254.823 661.343 254.632 661.721C254.445 662.099 254.205 662.444 253.911 662.757C253.757 662.92 253.6 663.07 253.442 663.205C253.283 663.336 253.136 663.464 253.001 663.59C252.865 663.716 252.753 663.854 252.665 664.003C252.539 664.218 252.466 664.411 252.448 664.584C252.429 664.752 252.42 664.978 252.42 665.263H250.866ZM250.873 668V666.306H252.42V668H250.873Z" fill="#666666"/>
<path d="M127 129.711L127.462 107.101C127.462 107.078 127.499 107.071 127.507 107.093L138.109 129.665C138.117 129.683 138.145 129.683 138.153 129.665L149.217 107.093C149.228 107.071 149.262 107.078 149.262 107.103V130.119C149.262 130.132 149.273 130.142 149.287 130.142H154.812C154.823 130.142 154.832 130.137 154.834 130.127L164.085 107.474C164.094 107.457 164.119 107.454 164.13 107.472C168.756 115.031 172.462 123.443 177.091 131C175.732 128.492 171.726 123.125 171.532 122.868C171.527 122.863 171.521 122.858 171.513 122.858L158.589 123.284C158.572 123.284 158.558 123.269 158.563 123.254C160.289 118.049 161.791 112.687 164.13 107.598C164.144 107.568 164.189 107.565 164.206 107.593C168.784 115.099 172.465 123.433 177.052 130.932C177.063 130.952 177.094 130.944 177.096 130.922L178.94 107.489C178.943 107.469 178.971 107.462 178.985 107.479L196.064 130.937C196.078 130.955 196.108 130.947 196.108 130.927C196.246 123.622 194.335 107.681 194.254 107.02C194.251 107.008 194.262 107 194.273 107C194.904 107.02 208.178 107.429 215.12 107.429H202.622C202.608 107.429 202.597 107.439 202.597 107.452V118.548C202.597 118.561 202.608 118.571 202.619 118.571C206.323 118.712 210.024 118.427 213.728 118.571C210.027 118.43 206.323 118.286 202.622 118.145C202.608 118.145 202.597 118.152 202.597 118.165C202.443 121.869 202.289 126.847 202.135 130.551C202.135 130.561 202.143 130.571 202.154 130.571C207.556 130.715 213.263 131.426 218.819 130.571C218.827 130.571 218.833 130.566 218.835 130.561C219.752 128.719 220.217 126.042 221.127 124.19C221.136 124.172 221.164 124.175 221.169 124.193C222.539 127.468 225.554 129.791 229.033 130.142C232.547 130.498 236.976 128.883 237.845 125.858C238.511 123.537 236.929 120.923 235.063 119.429C230.633 115.889 224.696 118.715 222.542 115.571C221.206 113.623 222.455 111.029 222.542 110.858C223.85 108.241 227.081 107.626 228.106 107.429C229.011 107.257 232.426 106.604 235.063 108.716C236.772 110.083 237.242 111.882 237.382 112.574" stroke="#FA512F" stroke-opacity="0.8" stroke-width="3" stroke-miterlimit="10" stroke-linecap="round" stroke-linejoin="round"/>
<path d="M123 108C122.804 114.722 122.196 123.278 122 130" stroke="#FA512F" stroke-opacity="0.8" stroke-width="3" stroke-miterlimit="10" stroke-linecap="round" stroke-linejoin="round"/>
<path d="M111.308 91.36C109.972 91.36 108.832 91.064 107.888 90.472C106.944 89.872 106.22 89.056 105.716 88.024C105.22 86.992 104.968 85.824 104.96 84.52C104.968 83.192 105.228 82.016 105.74 80.992C106.26 79.96 106.996 79.152 107.948 78.568C108.9 77.976 110.032 77.68 111.344 77.68C112.816 77.68 114.06 78.052 115.076 78.796C116.1 79.532 116.768 80.54 117.08 81.82L114.2 82.6C113.976 81.904 113.604 81.364 113.084 80.98C112.564 80.588 111.972 80.392 111.308 80.392C110.556 80.392 109.936 80.572 109.448 80.932C108.96 81.284 108.6 81.772 108.368 82.396C108.136 83.02 108.02 83.728 108.02 84.52C108.02 85.752 108.296 86.748 108.848 87.508C109.4 88.268 110.22 88.648 111.308 88.648C112.076 88.648 112.68 88.472 113.12 88.12C113.568 87.768 113.904 87.26 114.128 86.596L117.08 87.256C116.68 88.576 115.98 89.592 114.98 90.304C113.98 91.008 112.756 91.36 111.308 91.36ZM124.857 91.36C123.561 91.36 122.429 91.068 121.461 90.484C120.493 89.9 119.741 89.096 119.205 88.072C118.677 87.04 118.413 85.856 118.413 84.52C118.413 83.16 118.685 81.968 119.229 80.944C119.773 79.92 120.529 79.12 121.497 78.544C122.465 77.968 123.585 77.68 124.857 77.68C126.161 77.68 127.297 77.972 128.265 78.556C129.233 79.14 129.985 79.948 130.521 80.98C131.057 82.004 131.325 83.184 131.325 84.52C131.325 85.864 131.053 87.052 130.509 88.084C129.973 89.108 129.221 89.912 128.253 90.496C127.285 91.072 126.153 91.36 124.857 91.36ZM124.857 88.648C126.009 88.648 126.865 88.264 127.425 87.496C127.985 86.728 128.265 85.736 128.265 84.52C128.265 83.264 127.981 82.264 127.413 81.52C126.845 80.768 125.993 80.392 124.857 80.392C124.081 80.392 123.441 80.568 122.937 80.92C122.441 81.264 122.073 81.748 121.833 82.372C121.593 82.988 121.473 83.704 121.473 84.52C121.473 85.776 121.757 86.78 122.325 87.532C122.901 88.276 123.745 88.648 124.857 88.648ZM142.933 91V84.76C142.933 84.352 142.905 83.9 142.849 83.404C142.793 82.908 142.661 82.432 142.453 81.976C142.253 81.512 141.949 81.132 141.541 80.836C141.141 80.54 140.597 80.392 139.909 80.392C139.541 80.392 139.177 80.452 138.817 80.572C138.457 80.692 138.129 80.9 137.833 81.196C137.545 81.484 137.313 81.884 137.137 82.396C136.961 82.9 136.873 83.548 136.873 84.34L135.157 83.608C135.157 82.504 135.369 81.504 135.793 80.608C136.225 79.712 136.857 79 137.689 78.472C138.521 77.936 139.545 77.668 140.761 77.668C141.721 77.668 142.513 77.828 143.137 78.148C143.761 78.468 144.257 78.876 144.625 79.372C144.993 79.868 145.265 80.396 145.441 80.956C145.617 81.516 145.729 82.048 145.777 82.552C145.833 83.048 145.861 83.452 145.861 83.764V91H142.933ZM133.945 91V78.04H136.525V82.06H136.873V91H133.945ZM154.674 91.36C153.362 91.36 152.21 91.076 151.218 90.508C150.226 89.94 149.45 89.152 148.89 88.144C148.338 87.136 148.062 85.976 148.062 84.664C148.062 83.248 148.334 82.02 148.878 80.98C149.422 79.932 150.178 79.12 151.146 78.544C152.114 77.968 153.234 77.68 154.506 77.68C155.85 77.68 156.99 77.996 157.926 78.628C158.87 79.252 159.57 80.136 160.026 81.28C160.482 82.424 160.654 83.772 160.542 85.324H157.674V84.268C157.666 82.86 157.418 81.832 156.93 81.184C156.442 80.536 155.674 80.212 154.626 80.212C153.442 80.212 152.562 80.58 151.986 81.316C151.41 82.044 151.122 83.112 151.122 84.52C151.122 85.832 151.41 86.848 151.986 87.568C152.562 88.288 153.402 88.648 154.506 88.648C155.218 88.648 155.83 88.492 156.342 88.18C156.862 87.86 157.262 87.4 157.542 86.8L160.398 87.664C159.902 88.832 159.134 89.74 158.094 90.388C157.062 91.036 155.922 91.36 154.674 91.36ZM150.21 85.324V83.14H159.126V85.324H150.21ZM168.847 91.36C167.511 91.36 166.371 91.064 165.427 90.472C164.483 89.872 163.759 89.056 163.255 88.024C162.759 86.992 162.507 85.824 162.499 84.52C162.507 83.192 162.767 82.016 163.279 80.992C163.799 79.96 164.535 79.152 165.487 78.568C166.439 77.976 167.571 77.68 168.883 77.68C170.355 77.68 171.599 78.052 172.615 78.796C173.639 79.532 174.307 80.54 174.619 81.82L171.739 82.6C171.515 81.904 171.143 81.364 170.623 80.98C170.103 80.588 169.511 80.392 168.847 80.392C168.095 80.392 167.475 80.572 166.987 80.932C166.499 81.284 166.139 81.772 165.907 82.396C165.675 83.02 165.559 83.728 165.559 84.52C165.559 85.752 165.835 86.748 166.387 87.508C166.939 88.268 167.759 88.648 168.847 88.648C169.615 88.648 170.219 88.472 170.659 88.12C171.107 87.768 171.443 87.26 171.667 86.596L174.619 87.256C174.219 88.576 173.519 89.592 172.519 90.304C171.519 91.008 170.295 91.36 168.847 91.36ZM184.62 91C183.764 91.16 182.924 91.228 182.1 91.204C181.284 91.188 180.552 91.04 179.904 90.76C179.256 90.472 178.764 90.02 178.428 89.404C178.132 88.844 177.976 88.272 177.96 87.688C177.944 87.104 177.936 86.444 177.936 85.708V74.44H180.816V85.54C180.816 86.06 180.82 86.516 180.828 86.908C180.844 87.3 180.928 87.62 181.08 87.868C181.368 88.348 181.828 88.616 182.46 88.672C183.092 88.728 183.812 88.696 184.62 88.576V91ZM175.584 80.308V78.04H184.62V80.308H175.584ZM191.031 91.36C190.095 91.36 189.303 91.184 188.655 90.832C188.007 90.472 187.515 89.996 187.179 89.404C186.851 88.812 186.687 88.16 186.687 87.448C186.687 86.824 186.791 86.264 186.999 85.768C187.207 85.264 187.527 84.832 187.959 84.472C188.391 84.104 188.951 83.804 189.639 83.572C190.159 83.404 190.767 83.252 191.463 83.116C192.167 82.98 192.927 82.856 193.743 82.744C194.567 82.624 195.427 82.496 196.323 82.36L195.291 82.948C195.299 82.052 195.099 81.392 194.691 80.968C194.283 80.544 193.595 80.332 192.627 80.332C192.043 80.332 191.479 80.468 190.935 80.74C190.391 81.012 190.011 81.48 189.795 82.144L187.155 81.316C187.475 80.22 188.083 79.34 188.979 78.676C189.883 78.012 191.099 77.68 192.627 77.68C193.779 77.68 194.791 77.868 195.663 78.244C196.543 78.62 197.195 79.236 197.619 80.092C197.851 80.548 197.991 81.016 198.039 81.496C198.087 81.968 198.111 82.484 198.111 83.044V91H195.579V88.192L195.999 88.648C195.415 89.584 194.731 90.272 193.947 90.712C193.171 91.144 192.199 91.36 191.031 91.36ZM191.607 89.056C192.263 89.056 192.823 88.94 193.287 88.708C193.751 88.476 194.119 88.192 194.391 87.856C194.671 87.52 194.859 87.204 194.955 86.908C195.107 86.54 195.191 86.12 195.207 85.648C195.231 85.168 195.243 84.78 195.243 84.484L196.131 84.748C195.259 84.884 194.511 85.004 193.887 85.108C193.263 85.212 192.727 85.312 192.279 85.408C191.831 85.496 191.435 85.596 191.091 85.708C190.755 85.828 190.471 85.968 190.239 86.128C190.007 86.288 189.827 86.472 189.699 86.68C189.579 86.888 189.519 87.132 189.519 87.412C189.519 87.732 189.599 88.016 189.759 88.264C189.919 88.504 190.151 88.696 190.455 88.84C190.767 88.984 191.151 89.056 191.607 89.056ZM211.667 91.36C210.331 91.36 209.191 91.064 208.247 90.472C207.303 89.872 206.579 89.056 206.075 88.024C205.579 86.992 205.327 85.824 205.319 84.52C205.327 83.192 205.587 82.016 206.099 80.992C206.619 79.96 207.355 79.152 208.307 78.568C209.259 77.976 210.391 77.68 211.703 77.68C213.175 77.68 214.419 78.052 215.435 78.796C216.459 79.532 217.127 80.54 217.439 81.82L214.559 82.6C214.335 81.904 213.963 81.364 213.443 80.98C212.923 80.588 212.331 80.392 211.667 80.392C210.915 80.392 210.295 80.572 209.807 80.932C209.319 81.284 208.959 81.772 208.727 82.396C208.495 83.02 208.379 83.728 208.379 84.52C208.379 85.752 208.655 86.748 209.207 87.508C209.759 88.268 210.579 88.648 211.667 88.648C212.435 88.648 213.039 88.472 213.479 88.12C213.927 87.768 214.263 87.26 214.487 86.596L217.439 87.256C217.039 88.576 216.339 89.592 215.339 90.304C214.339 91.008 213.115 91.36 211.667 91.36ZM225.217 91.36C223.921 91.36 222.789 91.068 221.821 90.484C220.853 89.9 220.101 89.096 219.565 88.072C219.037 87.04 218.773 85.856 218.773 84.52C218.773 83.16 219.045 81.968 219.589 80.944C220.133 79.92 220.889 79.12 221.857 78.544C222.825 77.968 223.945 77.68 225.217 77.68C226.521 77.68 227.657 77.972 228.625 78.556C229.593 79.14 230.345 79.948 230.881 80.98C231.417 82.004 231.685 83.184 231.685 84.52C231.685 85.864 231.413 87.052 230.869 88.084C230.333 89.108 229.581 89.912 228.613 90.496C227.645 91.072 226.513 91.36 225.217 91.36ZM225.217 88.648C226.369 88.648 227.225 88.264 227.785 87.496C228.345 86.728 228.625 85.736 228.625 84.52C228.625 83.264 228.341 82.264 227.773 81.52C227.205 80.768 226.353 80.392 225.217 80.392C224.441 80.392 223.801 80.568 223.297 80.92C222.801 81.264 222.433 81.748 222.193 82.372C221.953 82.988 221.833 83.704 221.833 84.52C221.833 85.776 222.117 86.78 222.685 87.532C223.261 88.276 224.105 88.648 225.217 88.648ZM243.292 91V84.76C243.292 84.352 243.264 83.9 243.208 83.404C243.152 82.908 243.02 82.432 242.812 81.976C242.612 81.512 242.308 81.132 241.9 80.836C241.5 80.54 240.956 80.392 240.268 80.392C239.9 80.392 239.536 80.452 239.176 80.572C238.816 80.692 238.488 80.9 238.192 81.196C237.904 81.484 237.672 81.884 237.496 82.396C237.32 82.9 237.232 83.548 237.232 84.34L235.516 83.608C235.516 82.504 235.728 81.504 236.152 80.608C236.584 79.712 237.216 79 238.048 78.472C238.88 77.936 239.904 77.668 241.12 77.668C242.08 77.668 242.872 77.828 243.496 78.148C244.12 78.468 244.616 78.876 244.984 79.372C245.352 79.868 245.624 80.396 245.8 80.956C245.976 81.516 246.088 82.048 246.136 82.552C246.192 83.048 246.22 83.452 246.22 83.764V91H243.292ZM234.304 91V78.04H236.884V82.06H237.232V91H234.304Z" fill="#FA512F" fill-opacity="0.8"/>
<path d="M180.434 163.496C184.032 163.496 188.206 168.51 191.326 176.581C195.016 186.12 197.046 198.878 197.046 212.5C197.046 226.122 195.016 238.88 191.326 248.419C188.206 256.49 184.032 261.504 180.434 261.504C176.837 261.504 172.663 256.49 169.542 248.419C165.853 238.88 163.822 226.122 163.822 212.5C163.822 198.878 165.853 186.12 169.542 176.581C172.663 168.508 176.837 163.496 180.434 163.496ZM180.434 160C169.224 160 160.135 183.506 160.135 212.5C160.135 241.494 169.224 265 180.434 265C191.645 265 200.733 241.494 200.733 212.5C200.733 183.506 191.642 160 180.434 160Z" fill="#FA512F"/>
<path d="M136.555 168.538V172.034C138.441 172.034 140.856 172.86 143.539 174.424C146.51 176.154 149.699 178.704 153.017 182C160.03 188.964 167.061 198.781 172.81 209.636C179.326 221.937 183.61 234.32 184.877 244.506C185.949 253.126 184.619 259.429 181.409 260.957C180.819 261.239 180.155 261.374 179.381 261.374C177.495 261.374 175.078 260.548 172.397 258.984C169.426 257.254 166.237 254.704 162.919 251.408C155.903 244.443 148.875 234.627 143.123 223.772C136.608 211.471 132.323 199.088 131.056 188.902C129.985 180.282 131.315 173.979 134.525 172.451C135.115 172.171 135.778 172.034 136.553 172.034L136.555 168.538ZM136.553 168.538C135.223 168.538 133.988 168.795 132.871 169.327C122.853 174.099 125.969 199.178 139.829 225.343C152.143 248.589 168.794 264.87 179.381 264.87C180.711 264.87 181.946 264.613 183.062 264.081C193.08 259.309 189.965 234.23 176.105 208.065C163.791 184.819 147.142 168.538 136.553 168.538Z" fill="#0C3EF5"/>
<path d="M223.968 172.086C224.743 172.086 225.406 172.224 225.996 172.503C229.206 174.031 230.536 180.337 229.464 188.954C228.2 199.14 223.916 211.526 217.4 223.827C211.651 234.682 204.62 244.498 197.607 251.465C194.289 254.762 191.1 257.311 188.129 259.042C185.446 260.605 183.031 261.432 181.145 261.432C180.371 261.432 179.707 261.294 179.117 261.015C175.907 259.486 174.577 253.181 175.649 244.563C176.913 234.377 181.198 221.992 187.713 209.691C193.462 198.836 200.493 189.019 207.506 182.052C210.825 178.756 214.014 176.206 216.984 174.476C219.668 172.913 222.083 172.086 223.968 172.086ZM223.968 168.59C213.382 168.59 196.73 184.874 184.419 208.12C170.559 234.288 167.446 259.366 177.464 264.136C178.58 264.668 179.815 264.925 181.145 264.925C191.732 264.925 208.383 248.641 220.695 225.395C234.555 199.228 237.668 174.149 227.65 169.379C226.533 168.847 225.298 168.59 223.968 168.59Z" fill="#0C3EF5"/>
<path d="M141 604.845C141 603.79 140.915 602.735 140.745 601.702H126.311V607.665H134.58C134.24 609.581 133.135 611.303 131.519 612.38V616.255H136.451C139.342 613.564 141 609.581 141 604.845Z" fill="#4285F4"/>
<path d="M126.311 620C130.435 620 133.922 618.622 136.451 616.254L131.52 612.379C130.138 613.326 128.373 613.865 126.311 613.865C122.315 613.865 118.935 611.131 117.723 607.471H112.643V611.475C115.236 616.706 120.529 620 126.311 620Z" fill="#34A853"/>
<path d="M117.724 607.472C117.086 605.556 117.086 603.468 117.724 601.53V597.547H112.642C110.453 601.918 110.453 607.084 112.642 611.454L117.724 607.472Z" fill="#FBBC04"/>
<path d="M126.312 595.136C128.501 595.093 130.606 595.933 132.179 597.461L136.558 593.027C133.773 590.4 130.117 588.958 126.312 589.001C120.529 589.001 115.236 592.316 112.643 597.547L117.723 601.552C118.935 597.87 122.315 595.136 126.312 595.136Z" fill="#EA4335"/>
<defs>
<clipPath id="clip0_410_467">
<rect width="30" height="30" fill="white" transform="translate(217 591)"/>
</clipPath>
</defs>
</svg>
